<svg width="390" height="844" viewBox="0 0 390 844" fill="none" xmlns="http://www.w3.org/2000/svg">
<g clip-path="url(#clip0_54_1612)">
<rect width="390" height="844" rx="8" fill="white"/>
<path d="M390 844H0V0H390V844Z" fill="url(#paint0_linear_54_1612)"/>
<path d="M390 844H0V0H390V844Z" stroke="#E5E7EB"/>
<g clip-path="url(#clip1_54_1612)">
<path d="M390 844H0V0H390V844Z" stroke="#E5E7EB"/>
<g opacity="0.514543">
<path d="M302 700C306.418 700 310 703.582 310 708C310 712.418 306.418 716 302 716C297.582 716 294 712.418 294 708C294 703.582 297.582 700 302 700Z" fill="#FBBF24"/>
<path d="M302 700C306.418 700 310 703.582 310 708C310 712.418 306.418 716 302 716C297.582 716 294 712.418 294 708C294 703.582 297.582 700 302 700Z" stroke="#E5E7EB"/>
</g>
<g opacity="0.514543">
<path d="M20 240C22.2091 240 24 241.791 24 244C24 246.209 22.2091 248 20 248C17.7909 248 16 246.209 16 244C16 241.791 17.7909 240 20 240Z" fill="#FCD34D"/>
<path d="M20 240C22.2091 240 24 241.791 24 244C24 246.209 22.2091 248 20 248C17.7909 248 16 246.209 16 244C16 241.791 17.7909 240 20 240Z" stroke="#E5E7EB"/>
</g>
<g opacity="0.510649">
<path d="M352 80C355.314 80 358 82.6863 358 86C358 89.3137 355.314 92 352 92C348.686 92 346 89.3137 346 86C346 82.6863 348.686 80 352 80Z" fill="#FBBF24"/>
<path d="M352 80C355.314 80 358 82.6863 358 86C358 89.3137 355.314 92 352 92C348.686 92 346 89.3137 346 86C346 82.6863 348.686 80 352 80Z" stroke="#E5E7EB"/>
</g>
<g opacity="0.1">
<path d="M390 844H0V0H390V844Z" stroke="#E5E7EB"/>
<path d="M314 709C328.912 709 341 721.088 341 736C341 750.912 328.912 763 314 763C299.088 763 287 750.912 287 736C287 721.088 299.088 709 314 709Z" stroke="#FCD34D" stroke-width="2"/>
<path d="M35.5346 632.535H76.4652C80.3312 632.535 83.4652 635.669 83.4652 639.535V680.465C83.4652 684.331 80.3312 687.465 76.4652 687.465H35.5346C31.6686 687.465 28.5346 684.331 28.5346 680.465V639.535C28.5346 635.669 31.6686 632.535 35.5346 632.535Z" stroke="#FBBF24" stroke-width="2"/>
<path d="M294 129C311.121 129 325 142.879 325 160C325 177.121 311.121 191 294 191C276.879 191 263 177.121 263 160C263 142.879 276.879 129 294 129Z" stroke="#FCD34D" stroke-width="2"/>
<path d="M31.4315 24.4314H128.568C132.434 24.4314 135.568 27.5654 135.568 31.4314V128.568C135.568 132.434 132.434 135.568 128.568 135.568H31.4315C27.5655 135.568 24.4315 132.434 24.4315 128.568V31.4314C24.4315 27.5654 27.5655 24.4314 31.4315 24.4314Z" stroke="#FBBF24" stroke-width="2"/>
</g>
</g>
</g>
<rect x="1" y="1" width="388" height="842" rx="7" stroke="#CED4DA" stroke-width="2"/>
<defs>
<linearGradient id="paint0_linear_54_1612" x1="0" y1="422" x2="390" y2="422" gradientUnits="userSpaceOnUse">
<stop stop-color="#1E3A8A"/>
<stop offset="0.5" stop-color="#1E40AF"/>
<stop offset="1" stop-color="#1E40AF"/>
</linearGradient>
<clipPath id="clip0_54_1612">
<rect width="390" height="844" rx="8" fill="white"/>
</clipPath>
<clipPath id="clip1_54_1612">
<path d="M0 0H390V844H0V0Z" fill="white"/>
</clipPath>
</defs>
</svg>
