<svg width="360" height="245" viewBox="0 0 360 245" fill="none" xmlns="http://www.w3.org/2000/svg">
<g clip-path="url(#clip0_83_7)">
<path d="M82.5771 94L284.921 94.922C291.519 94.922 297.917 97.1916 299.217 99.9577L359.2 232.375C362.299 239.255 356.101 244.929 345.304 244.929L14.496 244.858C3.49902 244.858 -2.49932 239.042 0.89974 232.163L67.8811 98.9648C69.2808 96.1278 75.8789 94 82.5771 94Z" fill="#FE9138"/>
<path d="M82.6771 95.2057L284.821 96.1278C290.119 96.1278 295.218 97.9718 296.218 100.171L353.902 231.17C356.301 236.56 351.302 241.099 342.805 241.099L17.2952 241.028C8.59764 241.028 3.699 236.489 6.39825 230.957L70.8803 99.2485C71.98 96.9789 77.2786 95.2057 82.6771 95.2057Z" fill="#BE5D30"/>
<path d="M83.6768 97.1207L283.221 97.9718C287.42 97.9718 291.419 99.3903 292.119 101.163L346.104 229.326C347.903 233.51 344.004 236.985 337.306 236.985L22.0939 236.844C15.3957 236.844 11.4968 233.368 13.4963 229.113L74.4793 100.241C75.2791 98.4683 79.378 97.1207 83.6768 97.1207Z" fill="black" stroke="white" stroke-width="5"/>
<path d="M162.455 98.4683L176.551 98.5392L176.251 104.426L161.755 104.355L162.455 98.4683Z" fill="white" stroke="black"/>
<path d="M176.551 98.5392L190.747 98.6101V104.497L176.251 104.426L176.551 98.5392Z" fill="white" stroke="black"/>
<path d="M190.747 98.6101L204.843 98.6811L205.243 104.568L190.747 104.497V98.6101Z" fill="white" stroke="black"/>
<path d="M161.755 104.355L176.251 104.426L175.951 110.597L161.155 110.526L161.755 104.355Z" fill="white" stroke="black"/>
<path d="M176.251 104.426L190.747 104.497L190.847 110.667L175.951 110.597L176.251 104.426Z" fill="#019B46" stroke="black"/>
<path d="M190.747 104.497L205.243 104.568L205.643 110.738L190.847 110.667L190.747 104.497Z" fill="#019B46" stroke="black"/>
<path d="M161.155 110.526L175.951 110.597L175.651 117.122L160.355 117.051L161.155 110.526Z" fill="white" stroke="black"/>
<path d="M175.951 110.597L190.847 110.667V117.122H175.651L175.951 110.597Z" fill="#019B46" stroke="black"/>
<path d="M190.847 110.667L205.643 110.738L206.043 117.193L190.847 117.122V110.667Z" fill="white" stroke="black"/>
<path d="M160.355 117.051L175.651 117.122L175.251 123.93L159.656 123.86L160.355 117.051Z" fill="white" stroke="black"/>
<path d="M175.651 117.122L190.847 117.193V124.001L175.251 123.93L175.651 117.122Z" fill="#019B46" stroke="black"/>
<path d="M190.847 117.193H206.043L206.443 124.072L190.847 124.001V117.193Z" fill="white" stroke="black"/>
<path d="M159.656 123.86L175.251 123.93L174.851 131.165L158.856 131.094L159.656 123.86Z" fill="white" stroke="black"/>
<path d="M175.251 123.93L190.847 124.001L190.947 131.165H174.851L175.251 123.93Z" fill="#019B46" stroke="black"/>
<path d="M190.847 124.001L206.443 124.072L206.943 131.236L190.947 131.165L190.847 124.001Z" fill="white" stroke="black"/>
<path d="M158.856 131.094L174.851 131.165L174.452 138.754L157.956 138.683L158.856 131.094Z" fill="white" stroke="black"/>
<path d="M174.851 131.165L190.947 131.236V138.825L174.452 138.754L174.851 131.165Z" fill="#019B46" stroke="black"/>
<path d="M190.947 131.236H206.943L207.442 138.896L190.947 138.825V131.236Z" fill="white" stroke="black"/>
<path d="M154.957 165.564H173.052L172.552 175.28L153.857 175.21L154.957 165.564Z" fill="white" stroke="black"/>
<path d="M173.052 165.564L191.147 165.635V175.28H172.552L173.052 165.564Z" fill="#06A0FF" stroke="black"/>
<path d="M191.147 165.635L209.142 165.706L209.742 175.351L191.147 175.28V165.635Z" fill="white" stroke="black"/>
<path d="M153.857 175.209L172.552 175.28L172.052 185.565L152.758 185.494L153.857 175.209Z" fill="white" stroke="black"/>
<path d="M172.552 175.28H191.147L191.247 185.565H172.052L172.552 175.28Z" fill="#06A0FF" stroke="black"/>
<path d="M191.147 175.28L209.742 175.351L210.442 185.636L191.247 185.565L191.147 175.28Z" fill="white" stroke="black"/>
<path d="M152.758 185.494L172.052 185.565L171.452 196.558L151.558 196.487L152.758 185.494Z" fill="white" stroke="black"/>
<path d="M172.052 185.565H191.247L191.347 196.558H171.452L172.052 185.565Z" fill="#06A0FF" stroke="black"/>
<path d="M191.247 185.565L210.442 185.635L211.141 196.629L191.347 196.558L191.247 185.565Z" fill="white" stroke="black"/>
<path d="M151.558 196.558H171.452L170.853 208.332L150.258 208.261L151.558 196.558Z" fill="white" stroke="black"/>
<path d="M171.452 196.558H191.347V208.332H170.853L171.452 196.558Z" fill="#06A0FF" stroke="black"/>
<path d="M191.347 196.558L211.141 196.629L211.941 208.332H191.347V196.558Z" fill="white" stroke="black"/>
<path d="M150.258 208.261L170.853 208.332L170.153 220.885H148.859L150.258 208.261Z" fill="#06A0FF" stroke="black"/>
<path d="M170.853 208.332H191.347L191.447 220.885H170.153L170.853 208.332Z" fill="#06A0FF" stroke="black"/>
<path d="M191.347 208.332H211.941L212.741 220.956L191.447 220.885L191.347 208.332Z" fill="white" stroke="black"/>
<path d="M148.859 220.885H170.153L169.453 234.432H147.259L148.859 220.885Z" fill="white" stroke="black"/>
<path d="M170.153 220.885L191.447 220.956L191.547 234.432H169.453L170.153 220.885Z" fill="white" stroke="black"/>
<path d="M191.447 220.956H212.741L213.541 234.432H191.547L191.447 220.956Z" fill="white" stroke="black"/>
<path d="M47.0869 164.854L51.3857 155.634L68.6809 155.705L64.9819 164.925L47.0869 164.854Z" fill="white" stroke="black"/>
<path d="M51.3857 155.634L55.3846 146.91L72.18 146.981L68.6809 155.705L51.3857 155.634Z" fill="white" stroke="black"/>
<path d="M55.3846 146.91L59.1836 138.754H75.579L72.18 146.981L55.3846 146.91Z" fill="white" stroke="black"/>
<path d="M64.9819 164.925L68.6809 155.705H86.0761L82.877 164.925H64.9819Z" fill="white" stroke="black"/>
<path d="M68.6809 155.705L72.1799 146.981L89.0752 147.052L86.0761 155.705H68.6809Z" fill="#ED1B24" stroke="black"/>
<path d="M72.1799 146.981L75.579 138.754L91.8745 138.825L89.0752 147.052L72.1799 146.981Z" fill="#ED1B24" stroke="black"/>
<path d="M82.877 164.925L86.0761 155.705L103.371 155.776L100.772 164.996L82.877 164.925Z" fill="white" stroke="black"/>
<path d="M86.0761 155.705L89.0753 147.052H105.871L103.371 155.776L86.0761 155.705Z" fill="#ED1B24" stroke="black"/>
<path d="M89.0753 147.052L91.8745 138.825L108.27 138.896L105.871 147.052H89.0753Z" fill="white" stroke="black"/>
<path d="M100.772 164.996L103.371 155.776L120.666 155.847L118.567 165.067L100.772 164.996Z" fill="white" stroke="black"/>
<path d="M103.371 155.776L105.871 147.052L122.666 147.123L120.666 155.847L103.371 155.776Z" fill="#ED1B24" stroke="black"/>
<path d="M105.871 147.052L108.27 138.896L124.565 138.967L122.666 147.123L105.871 147.052Z" fill="white" stroke="black"/>
<path d="M118.567 165.067L120.766 155.847H137.962L136.462 165.067H118.567Z" fill="white" stroke="black"/>
<path d="M120.766 155.847L122.666 147.123L139.461 147.194L137.962 155.847H120.766Z" fill="#ED1B24" stroke="black"/>
<path d="M122.666 147.123L124.565 138.967H140.861L139.461 147.194L122.666 147.123Z" fill="white" stroke="black"/>
<path d="M136.462 165.067L138.062 155.847L155.257 155.918L154.257 165.138L136.462 165.067Z" fill="white" stroke="black"/>
<path d="M138.062 155.847L139.461 147.194L156.257 147.265L155.257 155.918L138.062 155.847Z" fill="#ED1B24" stroke="black"/>
<path d="M139.461 147.194L140.961 138.967L157.256 139.038L156.257 147.265L139.461 147.194Z" fill="white" stroke="black"/>
<path d="M209.942 165.28L209.342 156.06L226.537 156.131L227.637 165.28H209.942Z" fill="white" stroke="black"/>
<path d="M209.342 156.06L208.742 147.407H225.437L226.537 156.131L209.342 156.06Z" fill="#FBDF1A" stroke="black"/>
<path d="M208.742 147.407L208.142 139.179L224.438 139.25L225.437 147.407H208.742Z" fill="white" stroke="black"/>
<path d="M227.637 165.28L226.537 156.131H243.732L245.332 165.351L227.637 165.28Z" fill="white" stroke="black"/>
<path d="M226.537 156.131L225.437 147.407L242.133 147.478L243.732 156.131H226.537Z" fill="#FBDF1A" stroke="black"/>
<path d="M225.437 147.407L224.438 139.25L240.633 139.321L242.133 147.478L225.437 147.407Z" fill="white" stroke="black"/>
<path d="M245.432 165.351L243.732 156.131L260.828 156.202L263.027 165.422L245.432 165.351Z" fill="white" stroke="black"/>
<path d="M243.732 156.131L242.133 147.478L258.828 147.549L260.828 156.202L243.732 156.131Z" fill="#FBDF1A" stroke="black"/>
<path d="M242.133 147.478L240.633 139.321L256.829 139.392L258.828 147.549L242.133 147.478Z" fill="white" stroke="black"/>
<path d="M263.127 165.422L260.928 156.202L278.023 156.272L280.722 165.422H263.127Z" fill="white" stroke="black"/>
<path d="M260.928 156.202L258.828 147.549L275.423 147.62L278.023 156.272L260.928 156.202Z" fill="#FBDF1A" stroke="black"/>
<path d="M258.828 147.549L256.829 139.392H273.024L275.423 147.62L258.828 147.549Z" fill="white" stroke="black"/>
<path d="M280.722 165.422L278.023 156.272H295.218L298.417 165.493L280.722 165.422Z" fill="#FBDF1A" stroke="black"/>
<path d="M278.023 156.272L275.523 147.62H292.119L295.218 156.272H278.023Z" fill="#FBDF1A" stroke="black"/>
<path d="M275.523 147.62L273.024 139.392L289.22 139.463L292.119 147.62H275.523Z" fill="white" stroke="black"/>
<path d="M298.417 165.493L295.218 156.272L312.313 156.343L316.112 165.493H298.417Z" fill="white" stroke="black"/>
<path d="M295.218 156.272L292.119 147.62L308.714 147.69L312.313 156.343L295.218 156.272Z" fill="white" stroke="black"/>
<path d="M292.119 147.62L289.22 139.463L305.415 139.534L308.714 147.69L292.119 147.62Z" fill="white" stroke="black"/>
<path d="M205.443 98.6811L283.521 99.0357C286.42 99.0357 289.12 100.029 289.62 101.234L305.215 139.179L208.142 138.896L205.443 98.6811Z" fill="#019B46" stroke="black"/>
<path d="M216.04 102.937L275.923 103.22C278.623 103.22 281.222 104.213 281.722 105.348L292.319 133.931L219.439 133.718L216.04 102.937Z" fill="white" stroke="black" stroke-width="2"/>
<path d="M236.334 107.972C240.733 107.972 244.632 109.533 245.032 111.448C245.432 113.434 242.133 114.994 237.634 114.994C233.135 114.994 229.236 113.363 228.936 111.377C228.636 109.533 231.936 107.972 236.334 107.972Z" fill="#019B46" stroke="black"/>
<path d="M238.534 120.03C243.132 120.03 247.231 121.732 247.731 123.86C248.231 125.987 244.732 127.76 240.033 127.76C235.335 127.76 231.136 125.987 230.836 123.789C230.536 121.661 233.935 119.959 238.534 120.03Z" fill="#019B46" stroke="black"/>
<path d="M263.027 108.114C267.426 108.114 271.425 109.674 272.124 111.589C272.724 113.575 269.625 115.136 265.126 115.136C260.628 115.136 256.529 113.504 256.029 111.519C255.529 109.604 258.628 108.114 263.027 108.114Z" fill="#019B46" stroke="black"/>
<path d="M266.526 120.101C271.125 120.101 275.424 121.803 276.123 123.93C276.823 126.058 273.524 127.831 268.825 127.831C264.127 127.831 259.828 126.058 259.228 123.86C258.628 121.803 261.927 120.101 266.526 120.101Z" fill="#019B46" stroke="black"/>
<path d="M209.942 165.706L316.212 165.989L342.005 228.829C343.305 232.021 340.305 234.574 335.307 234.574L214.54 234.432L209.942 165.706Z" fill="#FBDF1A" stroke="black"/>
<path d="M223.638 172.656L306.715 172.869L324.41 220.531C325.31 223.084 322.81 225.141 318.711 225.141L229.236 225.07L223.638 172.656Z" fill="white" stroke="black" stroke-width="2"/>
<path d="M250.031 180.954C255.729 180.954 260.828 183.508 261.527 186.77C262.227 190.033 258.128 192.728 252.23 192.728C246.332 192.728 241.133 189.962 240.633 186.699C240.133 183.508 244.332 180.954 250.031 180.954Z" fill="#FBDF1A" stroke="black"/>
<path d="M253.829 201.239C259.828 201.239 265.326 204.147 266.126 207.764C266.926 211.452 262.527 214.573 256.329 214.573C250.031 214.573 244.532 211.452 243.932 207.764C243.332 204.147 247.731 201.239 253.829 201.239Z" fill="#FBDF1A" stroke="black"/>
<path d="M284.421 181.025C290.119 181.025 295.518 183.579 296.518 186.841C297.617 190.104 293.718 192.799 287.82 192.799C281.922 192.799 276.523 190.104 275.623 186.77C274.824 183.579 278.823 181.025 284.421 181.025Z" fill="#FBDF1A" stroke="black"/>
<path d="M290.419 201.31C296.418 201.31 302.216 204.218 303.416 207.835C304.615 211.523 300.616 214.644 294.318 214.644C288.12 214.644 282.222 211.594 281.222 207.835C280.222 204.147 284.421 201.31 290.419 201.31Z" fill="#FBDF1A" stroke="black"/>
<path d="M83.1769 98.1137L161.855 98.4683L157.256 138.683L59.2835 138.399L76.9786 100.312C77.4785 99.1066 80.2777 98.1137 83.1769 98.1137Z" fill="#ED1B24" stroke="black"/>
<path d="M91.3746 102.44L151.658 102.724L146.959 133.434L73.4796 133.151L85.4763 104.497C85.9761 103.362 88.5754 102.44 91.3746 102.44Z" fill="white" stroke="black" stroke-width="2"/>
<path d="M104.171 107.476C108.57 107.476 111.669 109.036 111.069 110.951C110.469 112.937 106.271 114.497 101.772 114.497C97.173 114.497 94.1739 112.866 94.8737 110.88C95.5735 108.965 99.7723 107.405 104.171 107.476Z" fill="#ED1B24" stroke="black"/>
<path d="M100.072 119.462C104.671 119.462 107.97 121.164 107.27 123.292C106.57 125.42 102.172 127.193 97.373 127.193C92.5743 127.193 89.3752 125.42 90.175 123.221C91.0747 121.164 95.3735 119.462 100.072 119.462Z" fill="#ED1B24" stroke="black"/>
<path d="M131.064 107.547C135.462 107.547 138.761 109.107 138.362 111.022C137.962 113.008 133.963 114.568 129.464 114.568C124.965 114.568 121.666 112.937 122.166 110.951C122.666 109.036 126.665 107.547 131.064 107.547Z" fill="#ED1B24" stroke="black"/>
<path d="M128.264 119.604C132.863 119.604 136.262 121.306 135.862 123.434C135.462 125.562 131.164 127.335 126.465 127.335C121.666 127.335 118.267 125.562 118.867 123.363C119.467 121.235 123.666 119.604 128.264 119.604Z" fill="#ED1B24" stroke="black"/>
<path d="M46.887 165.28L154.157 165.564L146.259 234.432L24.0933 234.361C18.9948 234.361 16.0956 231.737 17.5951 228.545L46.887 165.28Z" fill="#06A0FF" stroke="black"/>
<path d="M56.9842 172.302L140.861 172.514L132.763 225.07L42.3883 224.999C38.1894 224.999 35.6901 222.871 36.7898 220.318L56.9842 172.302Z" fill="white" stroke="black" stroke-width="2"/>
<path d="M79.278 180.6C84.9764 180.6 88.8753 183.224 87.8756 186.416C86.8759 189.749 81.1775 192.444 75.2791 192.444C69.3808 192.444 65.5818 189.678 66.7815 186.416C67.9811 183.153 73.5796 180.6 79.278 180.6Z" fill="#06A0FF" stroke="black"/>
<path d="M72.28 200.955C78.3783 200.955 82.3771 203.863 81.2775 207.551C80.0778 211.31 74.0794 214.36 67.6812 214.36C61.383 214.36 57.3841 211.24 58.7837 207.551C60.1833 203.863 66.1816 200.955 72.28 200.955Z" fill="#06A0FF" stroke="black"/>
<path d="M114.068 180.671C119.767 180.671 123.866 183.295 123.266 186.487C122.566 189.749 117.267 192.515 111.369 192.515C105.471 192.515 101.372 189.749 102.272 186.487C102.971 183.224 108.37 180.671 114.068 180.671Z" fill="#06A0FF" stroke="black"/>
<path d="M109.27 201.026C115.368 201.026 119.667 203.934 118.967 207.622C118.167 211.381 112.469 214.431 106.171 214.431C99.8723 214.431 95.5735 211.31 96.5732 207.622C97.5729 203.934 103.171 201.026 109.27 201.026Z" fill="#06A0FF" stroke="black"/>
<path d="M157.956 139.038L207.442 139.179L209.142 165.28L155.057 165.138L157.956 139.038Z" fill="white" stroke="black"/>
<path d="M182.449 151.308L158.456 139.038L206.943 139.179L182.449 151.308Z" fill="#019B46" stroke="black"/>
<path d="M182.949 151.591L209.142 164.996L207.542 139.463L182.949 151.591Z" fill="#FBDF1A" stroke="black"/>
<path d="M181.85 151.591L157.856 139.321L155.057 164.854L181.85 151.591Z" fill="#ED1B24" stroke="black"/>
<path d="M182.449 151.875L155.657 165.138L208.642 165.28L182.449 151.875Z" fill="#06A0FF" stroke="black"/>
<path d="M168.453 112.086L169.453 113.008L169.553 113.079H169.753L172.052 113.221L170.353 113.93L170.253 114.001V114.072L170.553 115.136L168.453 114.639H168.353H168.153L165.954 115.136L166.454 114.072V114.001L166.354 113.93L164.754 113.221L167.154 113.079H167.353L167.453 113.008L168.453 112.086Z" stroke="black"/>
<path d="M265.626 141.307L267.126 142.442L267.226 142.513H267.426L270.125 142.726L268.525 143.648L268.425 143.719L268.525 143.79L269.325 145.066L266.826 144.499L266.626 144.428L266.426 144.499L264.227 145.066L264.327 143.79V143.719L264.227 143.648L262.127 142.726L264.627 142.513H264.826L264.926 142.442L265.626 141.307Z" stroke="black"/>
<path d="M93.8739 157.904L94.7737 159.18L94.8737 159.251H95.0736L97.7729 159.464L95.4735 160.457L95.2735 160.67V160.741V162.159L92.9742 161.45L92.7742 161.379L92.5743 161.45L89.875 162.088L90.7748 160.67L90.8748 160.599L90.7748 160.528L89.0753 159.464L91.9745 159.251H92.1744L92.2744 159.18L93.8739 157.904Z" stroke="black"/>
<path d="M201.344 199.395L202.844 201.026L202.944 201.168H203.144L206.343 201.452L204.143 202.799L203.943 202.87V203.012L204.543 204.856L201.644 204.005L201.444 203.934L201.244 204.005L198.445 204.856L198.845 203.012V202.87L198.645 202.799L196.345 201.452L199.445 201.168H199.645L199.745 201.026L201.344 199.395Z" stroke="black"/>
<path d="M181.05 225.496C180.85 225.354 180.55 225.354 180.35 225.496L177.351 227.411C177.151 227.552 177.151 227.694 177.351 227.836C177.551 227.978 177.851 227.978 178.051 227.836L180.75 226.134L183.349 227.836C183.549 227.978 183.849 227.978 184.049 227.836C184.249 227.694 184.249 227.552 184.049 227.411L181.05 225.496ZM180.95 234.148L181.15 225.708H180.25L180.05 234.148H180.95Z" fill="black"/>
<path d="M183.849 102.369C183.749 102.44 183.549 102.44 183.449 102.369L181.45 101.518C181.35 101.447 181.35 101.376 181.45 101.305C181.55 101.234 181.75 101.234 181.849 101.305L183.549 102.015L185.349 101.305C185.448 101.234 185.648 101.234 185.748 101.305C185.848 101.376 185.848 101.447 185.748 101.518L183.849 102.369ZM183.949 98.6811L183.849 102.298H183.249L183.349 98.6811H183.949Z" fill="black"/>
<path d="M299.417 151.804C299.317 151.875 299.317 152.017 299.517 152.088L302.316 153.294C302.516 153.365 302.716 153.365 302.816 153.294C302.916 153.223 302.916 153.081 302.716 153.01L300.217 151.946L301.916 150.882C302.016 150.811 302.016 150.669 301.816 150.598C301.616 150.527 301.416 150.527 301.316 150.598L299.417 151.804ZM310.014 151.733H299.617L299.717 152.088H310.114L310.014 151.733Z" fill="black"/>
<path d="M64.5821 151.379C64.782 151.308 64.782 151.166 64.6821 151.095L62.7826 149.889C62.6826 149.818 62.3827 149.818 62.2827 149.889C62.0828 149.96 62.0828 150.102 62.1828 150.173L63.8823 151.237L61.283 152.301C61.0831 152.372 61.0831 152.513 61.183 152.584C61.283 152.655 61.5829 152.655 61.6829 152.584L64.5821 151.379ZM53.6851 151.379H64.2822L64.4821 151.024H53.8851L53.6851 151.379Z" fill="black"/>
<path d="M103.171 111.377C102.971 111.448 102.671 111.448 102.572 111.377L102.472 111.448L102.572 111.377C102.472 111.306 101.172 110.597 100.072 109.604C99.4724 109.107 98.9725 108.611 98.6726 108.043C98.3727 107.547 98.1727 106.979 98.3727 106.554C98.8726 105.064 102.072 103.93 105.471 103.93C108.87 103.93 111.269 105.135 110.769 106.625C110.669 107.05 110.069 107.618 109.37 108.114C108.67 108.611 107.77 109.178 106.87 109.675C105.071 110.526 103.271 111.306 103.171 111.377Z" fill="url(#paint0_linear_83_7)" stroke="#454545" stroke-width="0.5"/>
<path d="M104.971 104.923C106.97 104.923 108.37 105.632 108.07 106.483C107.77 107.334 105.871 108.043 103.871 108.043C101.872 108.043 100.472 107.334 100.772 106.483C101.072 105.632 102.971 104.923 104.971 104.923Z" fill="url(#paint1_linear_83_7)" stroke="#470E0E" stroke-width="0.5"/>
<path d="M98.9725 123.789C98.7725 123.86 98.4726 123.86 98.2727 123.789H98.1727L98.2727 123.718C98.1727 123.647 96.8731 122.796 95.6734 121.732C95.0736 121.235 94.5737 120.597 94.1738 120.03C93.7739 119.462 93.674 118.895 93.8739 118.398C94.4737 116.767 97.8728 115.49 101.372 115.49C104.971 115.49 107.37 116.838 106.87 118.398C106.67 118.895 106.17 119.462 105.371 120.03C104.571 120.597 103.671 121.164 102.771 121.732C100.972 122.867 99.0725 123.718 98.9725 123.789Z" fill="url(#paint2_linear_83_7)" stroke="#454545" stroke-width="0.5"/>
<path d="M100.972 116.767C103.071 116.767 104.571 117.547 104.271 118.469C103.971 119.391 101.972 120.171 99.8722 120.171C97.7728 120.171 96.2732 119.391 96.5731 118.398C96.873 117.476 98.8725 116.696 100.972 116.767Z" fill="url(#paint3_linear_83_7)" stroke="#470E0E" stroke-width="0.5"/>
<path d="M130.464 111.448C130.264 111.519 129.964 111.519 129.864 111.448L129.764 111.519L129.864 111.448C129.764 111.377 128.464 110.667 127.165 109.674C126.565 109.178 125.965 108.682 125.565 108.114C125.165 107.618 124.965 107.05 125.065 106.625C125.465 105.135 128.464 104 131.863 104C135.262 104 137.762 105.206 137.462 106.696C137.362 107.121 136.862 107.689 136.262 108.185C135.562 108.682 134.763 109.249 133.963 109.745C132.263 110.667 130.564 111.377 130.464 111.448Z" fill="url(#paint4_linear_83_7)" stroke="#454545" stroke-width="0.5"/>
<path d="M131.663 105.064C133.663 105.064 135.162 105.774 134.962 106.625C134.763 107.476 132.963 108.185 130.964 108.185C128.964 108.185 127.465 107.476 127.665 106.625C127.864 105.703 129.664 105.064 131.663 105.064Z" fill="url(#paint5_linear_83_7)" stroke="#470E0E" stroke-width="0.5"/>
<path d="M127.565 123.86C127.365 123.93 127.065 123.93 126.865 123.86L126.765 123.93L126.865 123.86C126.765 123.789 125.365 122.938 124.066 121.874C123.466 121.377 122.766 120.739 122.366 120.171C121.966 119.604 121.766 119.037 121.866 118.54C122.266 116.909 125.465 115.632 129.064 115.632C132.663 115.632 135.262 116.98 134.863 118.54C134.763 119.037 134.263 119.604 133.563 120.171C132.863 120.739 131.963 121.306 131.064 121.874C129.464 123.008 127.765 123.789 127.565 123.86Z" fill="url(#paint6_linear_83_7)" stroke="#454545" stroke-width="0.5"/>
<path d="M128.864 116.838C130.964 116.838 132.563 117.618 132.263 118.54C132.063 119.462 130.164 120.242 128.064 120.242C125.965 120.242 124.365 119.462 124.665 118.469C124.865 117.618 126.765 116.838 128.864 116.838Z" fill="url(#paint7_linear_83_7)" stroke="#470E0E" stroke-width="0.5"/>
<path d="M77.4785 187.125C77.1786 187.267 76.8787 187.267 76.6787 187.125L76.4788 187.196L76.6787 187.125C76.5788 187.054 74.9792 185.777 73.6796 184.146C72.9798 183.366 72.3799 182.444 71.98 181.593C71.5802 180.742 71.4802 179.82 71.7801 179.11C72.6798 176.628 76.9787 174.713 81.3774 174.713C85.7762 174.713 88.6754 176.699 87.8756 179.11C87.6757 179.891 86.8759 180.742 85.9762 181.593C84.9764 182.444 83.7768 183.366 82.5771 184.146C79.9778 185.777 77.6785 187.054 77.4785 187.125Z" fill="url(#paint8_linear_83_7)" stroke="#454545" stroke-width="0.5"/>
<path d="M80.6776 176.415C83.2769 176.415 84.9764 177.55 84.5765 179.039C84.0766 180.458 81.5773 181.664 78.9781 181.664C76.3788 181.664 74.5793 180.458 75.0791 179.039C75.579 177.55 78.0783 176.415 80.6776 176.415Z" fill="url(#paint9_linear_83_7)" stroke="#052F6F" stroke-width="0.5"/>
<path d="M70.2805 208.403C69.9806 208.544 69.5807 208.544 69.3808 208.403L69.1808 208.473L69.3808 208.403C69.2808 208.261 67.6812 206.842 66.2816 204.998C65.5818 204.076 64.982 203.083 64.5821 202.09C64.1822 201.097 64.0822 200.104 64.3821 199.253C65.3819 196.487 69.9806 194.288 74.5793 194.288C79.178 194.288 82.2772 196.487 81.4774 199.253C81.1775 200.104 80.3777 201.097 79.378 202.09C78.2783 203.083 76.9786 204.076 75.679 204.998C72.9798 206.842 70.4805 208.261 70.2805 208.403Z" fill="url(#paint10_linear_83_7)" stroke="#454545" stroke-width="0.5"/>
<path d="M73.8795 196.274C76.6787 196.274 78.4782 197.551 77.9784 199.182C77.4785 200.814 74.7793 202.161 71.8801 202.161C69.0808 202.161 67.2813 200.814 67.8812 199.182C68.481 197.551 71.1803 196.274 73.8795 196.274Z" fill="url(#paint11_linear_83_7)" stroke="#052F6F" stroke-width="0.5"/>
<path d="M112.969 187.196C112.769 187.338 112.369 187.338 112.169 187.196L111.969 187.267L112.169 187.196C112.069 187.125 110.369 185.848 108.87 184.217C108.07 183.437 107.37 182.515 106.97 181.664C106.47 180.813 106.27 179.891 106.47 179.181C107.07 176.699 111.169 174.784 115.568 174.784C119.967 174.784 123.066 176.77 122.566 179.181C122.366 179.961 121.766 180.813 120.866 181.664C119.967 182.515 118.867 183.437 117.767 184.217C115.368 185.848 113.069 187.125 112.969 187.196Z" fill="url(#paint12_linear_83_7)" stroke="#454545" stroke-width="0.5"/>
<path d="M114.968 176.486C117.567 176.486 119.367 177.621 119.067 179.039C118.767 180.458 116.368 181.664 113.768 181.664C111.169 181.664 109.27 180.458 109.67 179.039C110.069 177.621 112.369 176.486 114.968 176.486Z" fill="url(#paint13_linear_83_7)" stroke="#052F6F" stroke-width="0.5"/>
<path d="M107.97 208.403C107.67 208.544 107.27 208.544 107.07 208.403L106.87 208.473L107.07 208.403C106.97 208.261 105.171 206.842 103.571 205.069C102.771 204.147 102.072 203.154 101.572 202.161C101.072 201.168 100.872 200.175 101.072 199.324C101.772 196.558 106.171 194.359 110.769 194.359C115.368 194.359 118.667 196.558 118.167 199.324C117.967 200.175 117.267 201.168 116.368 202.161C115.368 203.154 114.168 204.147 112.969 205.069C110.569 206.913 108.17 208.332 107.97 208.403Z" fill="url(#paint14_linear_83_7)" stroke="#454545" stroke-width="0.5"/>
<path d="M110.369 196.345C113.169 196.345 115.068 197.622 114.768 199.253C114.368 200.884 111.869 202.232 109.07 202.232C106.27 202.232 104.371 200.884 104.771 199.253C105.071 197.622 107.67 196.345 110.369 196.345Z" fill="url(#paint15_linear_83_7)" stroke="#052F6F" stroke-width="0.5"/>
<path d="M237.334 111.873C237.134 111.944 236.934 111.944 236.734 111.873L236.634 111.944L236.734 111.873C236.634 111.802 234.935 111.093 233.335 110.1C232.535 109.604 231.736 109.107 231.136 108.54C230.536 108.043 230.036 107.476 230.036 107.05C229.836 105.561 232.335 104.426 235.735 104.426C239.134 104.426 242.133 105.632 242.433 107.121C242.533 107.547 242.333 108.114 241.833 108.611C241.433 109.107 240.833 109.674 240.133 110.171C238.834 111.093 237.434 111.802 237.334 111.873Z" fill="url(#paint16_linear_83_7)" stroke="#454545" stroke-width="0.5"/>
<path d="M235.835 105.49C237.834 105.49 239.633 106.199 239.733 107.05C239.933 107.901 238.434 108.611 236.334 108.611C234.335 108.611 232.535 107.901 232.435 107.05C232.335 106.199 233.835 105.49 235.835 105.49Z" fill="url(#paint17_linear_83_7)" stroke="#075C00" stroke-width="0.5"/>
<path d="M239.733 124.285C239.533 124.356 239.234 124.356 239.034 124.285L238.934 124.356L239.034 124.285C238.934 124.214 237.134 123.363 235.435 122.299C234.535 121.803 233.735 121.164 233.035 120.597C232.335 120.03 231.936 119.462 231.836 118.966C231.536 117.334 234.235 116.058 237.734 116.058C241.233 116.058 244.432 117.405 244.732 118.966C244.832 119.462 244.632 120.03 244.132 120.597C243.732 121.164 243.032 121.732 242.433 122.299C241.233 123.434 239.833 124.214 239.733 124.285Z" fill="url(#paint18_linear_83_7)" stroke="#454545" stroke-width="0.5"/>
<path d="M238.034 117.263C240.133 117.263 241.933 118.044 242.133 118.966C242.333 119.888 240.733 120.668 238.634 120.668C236.534 120.668 234.635 119.888 234.535 118.966C234.435 118.044 235.934 117.263 238.034 117.263Z" fill="url(#paint19_linear_83_7)" stroke="#075C00" stroke-width="0.5"/>
<path d="M264.427 112.015C264.327 112.086 264.027 112.086 263.827 112.015L263.727 112.086L263.827 112.015C263.727 111.944 262.027 111.235 260.228 110.242C259.328 109.745 258.528 109.249 257.828 108.682C257.129 108.185 256.629 107.618 256.529 107.192C256.129 105.703 258.528 104.568 261.927 104.568C265.326 104.568 268.425 105.774 268.825 107.263C268.925 107.689 268.825 108.256 268.425 108.752C268.025 109.249 267.526 109.816 266.926 110.313C265.826 111.235 264.526 111.944 264.427 112.015Z" fill="url(#paint20_linear_83_7)" stroke="#454545" stroke-width="0.5"/>
<path d="M262.327 105.632C264.327 105.632 266.126 106.341 266.426 107.192C266.726 108.043 265.226 108.752 263.227 108.752C261.227 108.752 259.328 108.043 259.128 107.192C258.828 106.27 260.328 105.632 262.327 105.632Z" fill="url(#paint21_linear_83_7)" stroke="#075C00" stroke-width="0.5"/>
<path d="M268.126 124.356C268.026 124.427 267.626 124.427 267.426 124.356L267.326 124.427L267.426 124.356C267.326 124.285 265.426 123.434 263.627 122.441C262.727 121.945 261.827 121.306 261.127 120.739C260.428 120.171 259.928 119.604 259.728 119.108C259.328 117.476 261.827 116.2 265.326 116.2C268.825 116.2 272.124 117.547 272.624 119.108C272.824 119.604 272.624 120.171 272.224 120.739C271.824 121.306 271.325 121.874 270.725 122.441C269.525 123.505 268.226 124.356 268.126 124.356Z" fill="url(#paint22_linear_83_7)" stroke="#454545" stroke-width="0.5"/>
<path d="M265.726 117.405C267.826 117.405 269.725 118.186 270.025 119.108C270.325 120.03 268.825 120.81 266.726 120.81C264.626 120.81 262.627 120.03 262.427 119.108C262.127 118.115 263.627 117.334 265.726 117.405Z" fill="url(#paint23_linear_83_7)" stroke="#075C00" stroke-width="0.5"/>
<path d="M251.63 187.48C251.43 187.621 251.03 187.621 250.83 187.48L250.73 187.55L250.83 187.48C250.63 187.409 248.531 186.132 246.332 184.501C245.232 183.721 244.132 182.799 243.332 181.947C242.533 181.096 241.933 180.174 241.833 179.465C241.433 177.054 244.632 175.068 248.931 175.068C253.23 175.068 257.229 177.054 257.728 179.465C257.928 180.245 257.628 181.096 257.129 181.947C256.629 182.799 255.829 183.721 255.129 184.501C253.43 186.132 251.73 187.338 251.63 187.48Z" fill="url(#paint24_linear_83_7)" stroke="#454545" stroke-width="0.5"/>
<path d="M249.231 176.77C251.83 176.77 254.129 177.905 254.429 179.323C254.729 180.742 252.83 181.947 250.231 181.947C247.631 181.947 245.332 180.742 245.032 179.323C244.732 177.905 246.632 176.77 249.231 176.77Z" fill="url(#paint25_linear_83_7)" stroke="#533200" stroke-width="0.5"/>
<path d="M255.629 208.615C255.429 208.757 255.029 208.757 254.729 208.615L254.629 208.686L254.729 208.615C254.529 208.473 252.23 207.055 249.931 205.282C248.731 204.36 247.631 203.367 246.731 202.374C245.832 201.381 245.232 200.388 245.032 199.537C244.632 196.771 247.931 194.572 252.53 194.572C257.129 194.572 261.327 196.771 261.927 199.537C262.127 200.388 261.827 201.381 261.327 202.374C260.828 203.367 260.028 204.36 259.228 205.282C257.528 207.055 255.729 208.473 255.629 208.615Z" fill="url(#paint26_linear_83_7)" stroke="#454545" stroke-width="0.5"/>
<path d="M252.93 196.558C255.629 196.558 258.128 197.835 258.428 199.466C258.728 201.097 256.729 202.445 254.029 202.374C251.23 202.374 248.731 201.026 248.531 199.395C248.231 197.835 250.231 196.558 252.93 196.558Z" fill="url(#paint27_linear_83_7)" stroke="#533200" stroke-width="0.5"/>
<path d="M286.72 187.48C286.52 187.621 286.121 187.621 285.921 187.48L285.821 187.55L285.921 187.48C285.721 187.409 283.421 186.132 281.122 184.501C279.922 183.721 278.823 182.799 277.823 181.947C276.923 181.096 276.223 180.174 276.023 179.465C275.324 177.054 278.323 175.068 282.721 175.068C287.02 175.068 291.219 177.054 291.919 179.465C292.119 180.245 292.019 181.096 291.619 181.947C291.219 182.799 290.519 183.721 289.819 184.501C288.42 186.203 286.82 187.409 286.72 187.48Z" fill="url(#paint28_linear_83_7)" stroke="#454545" stroke-width="0.5"/>
<path d="M283.221 176.841C285.821 176.841 288.22 177.976 288.62 179.394C289.02 180.813 287.32 182.018 284.721 182.018C282.122 182.018 279.622 180.813 279.222 179.394C278.923 177.976 280.622 176.841 283.221 176.841Z" fill="url(#paint29_linear_83_7)" stroke="#533200" stroke-width="0.5"/>
<path d="M293.019 208.615C292.819 208.757 292.419 208.757 292.119 208.615L292.019 208.686L292.119 208.615C291.919 208.473 289.42 207.126 286.92 205.282C285.621 204.36 284.421 203.367 283.421 202.374C282.422 201.381 281.722 200.388 281.422 199.537C280.722 196.771 283.821 194.572 288.42 194.572C293.019 194.572 297.417 196.771 298.317 199.537C298.617 200.388 298.417 201.381 298.017 202.374C297.617 203.367 296.917 204.36 296.218 205.282C294.718 207.126 293.119 208.544 293.019 208.615Z" fill="url(#paint30_linear_83_7)" stroke="#454545" stroke-width="0.5"/>
<path d="M289.02 196.629C291.719 196.629 294.318 197.906 294.818 199.537C295.318 201.168 293.518 202.445 290.719 202.445C287.92 202.445 285.321 201.097 284.921 199.466C284.421 197.906 286.32 196.629 289.02 196.629Z" fill="url(#paint31_linear_83_7)" stroke="#533200" stroke-width="0.5"/>
</g>
<g style="mix-blend-mode:multiply">
<path d="M214.73 135.489C155.925 132.963 108.835 120.332 109.294 106.783C109.753 93.4642 157.992 84.5081 216.567 87.0342C275.373 89.5602 322.463 102.191 322.003 115.739C321.544 129.059 273.535 137.785 214.73 135.489Z" fill="url(#paint32_radial_83_7)"/>
</g>
<path d="M279.737 28.2459C274.684 19.0603 262.05 9.64495 251.942 7.11889L226.215 0.68892C215.878 -1.83714 203.244 3.44462 197.961 12.4006L184.638 35.1352C179.355 44.0912 177.287 59.9365 180.274 70.0407L187.395 95.0717C190.151 105.176 201.177 113.443 211.744 113.673L238.39 113.902C248.956 113.902 263.428 107.932 270.549 100.353L288.696 81.2932C296.046 73.715 297.654 60.1661 292.601 50.9804L279.737 28.2459Z" fill="url(#paint33_radial_83_7)"/>
<path d="M183.03 70.2703C180.274 60.1661 182.111 44.5505 187.395 35.3648L197.502 17.912C202.785 8.95601 210.365 9.4153 214.5 19.0602L223.459 40.8762C227.593 50.5212 225.526 65.2182 219.324 73.715L205.082 92.7752C198.88 101.042 191.3 99.6645 188.313 89.5603L183.03 70.2703Z" fill="url(#paint34_radial_83_7)"/>
<path d="M219.094 17.2231C214.96 7.57817 220.013 1.60748 230.35 4.13354L250.334 9.18566C260.442 11.7117 273.076 21.127 278.129 30.3127L288.007 47.7655C293.06 56.9511 288.925 63.3811 278.359 62.0033L254.24 59.0179C243.903 57.6401 231.958 48.684 228.053 39.0391L219.094 17.2231Z" fill="url(#paint35_radial_83_7)"/>
<path d="M223.459 76.7003C229.661 68.4332 243.443 62.4625 253.78 63.8404L277.899 66.8257C288.236 68.2036 290.763 75.3225 283.642 82.9006L269.63 97.5977C262.279 105.176 247.808 111.376 237.471 111.147L216.797 110.917C206.231 110.917 202.785 103.798 209.217 95.5309L223.459 76.7003Z" fill="url(#paint36_radial_83_7)"/>
<path d="M270.549 44.5505C268.941 41.5652 269.86 39.4984 272.616 39.728C275.143 39.9577 278.589 42.2541 280.426 45.0098C282.264 47.7655 281.575 50.0619 278.818 50.0619C275.832 50.0619 272.157 47.5358 270.549 44.5505Z" fill="url(#paint37_linear_83_7)"/>
<path d="M271.008 42.943C270.778 42.2541 270.778 42.0244 271.468 42.0244C271.927 42.0244 272.846 42.4837 273.076 43.1726C273.305 43.8616 273.305 44.0912 272.616 44.0912C272.157 44.0912 271.468 43.6319 271.008 42.943Z" fill="white"/>
<path d="M243.214 43.4023C242.065 40.1873 243.903 37.6612 247.578 38.1205C251.024 38.3502 254.929 41.1059 256.307 44.0912C257.915 47.3062 256.307 50.0619 252.632 50.0619C248.956 49.8322 244.592 46.8469 243.214 43.4023Z" fill="url(#paint38_linear_83_7)"/>
<path d="M244.592 41.5651C244.362 40.8762 244.822 40.4169 245.511 40.4169C246.2 40.4169 247.119 41.1059 247.348 41.7948C247.578 42.4837 247.119 42.943 246.429 42.943C245.74 42.7134 244.822 42.2541 244.592 41.5651Z" fill="white"/>
<path d="M261.82 29.3941C260.442 27.0977 261.59 25.7199 264.117 25.9495C266.644 26.4088 269.63 28.2459 271.008 30.5423C272.386 32.8388 271.697 34.4463 269.171 34.2166C266.644 33.987 263.198 31.9202 261.82 29.3941Z" fill="url(#paint39_linear_83_7)"/>
<path d="M262.509 28.2459C262.279 27.7866 262.509 27.557 262.968 27.557C263.428 27.557 264.117 28.0163 264.347 28.4756C264.576 28.9349 264.347 29.1645 263.887 29.1645C263.428 29.1645 262.968 28.7052 262.509 28.2459Z" fill="white"/>
<path d="M236.552 26.1791C235.633 23.6531 237.471 22.0456 240.916 22.5049C244.132 22.9642 247.578 25.2606 248.727 27.7866C249.875 30.3127 248.267 32.1498 244.822 31.9202C241.376 31.4609 237.701 28.7052 236.552 26.1791Z" fill="url(#paint40_linear_83_7)"/>
<path d="M237.93 24.8013C237.701 24.342 238.16 23.8827 238.849 24.1124C239.538 24.1124 240.227 24.8013 240.457 25.2606C240.687 25.7199 240.227 26.1791 239.538 25.9495C238.849 25.9495 238.16 25.2606 237.93 24.8013Z" fill="white"/>
<path d="M254.929 17.2231C253.78 15.386 254.929 14.2378 257.455 14.6971C259.753 15.1564 262.509 16.9935 263.658 18.8306C265.036 20.6678 264.117 22.0456 261.59 21.5863C259.063 21.127 256.077 19.0603 254.929 17.2231Z" fill="url(#paint41_linear_83_7)"/>
<path d="M255.618 16.3046C255.388 15.8453 255.618 15.6156 256.077 15.8453C256.537 15.8453 257.226 16.3046 257.455 16.7638C257.685 17.2231 257.455 17.4528 256.996 17.2231C256.537 16.9935 255.848 16.7638 255.618 16.3046Z" fill="white"/>
<path d="M231.498 12.6303C230.809 10.5635 232.647 9.41531 235.633 10.1042C238.619 10.7932 241.606 12.8599 242.524 14.6971C243.443 16.7638 241.835 17.912 238.849 17.4528C235.633 16.9935 232.417 14.6971 231.498 12.6303Z" fill="url(#paint42_linear_83_7)"/>
<path d="M232.877 11.7117C232.647 11.2524 233.106 11.0228 233.796 11.2524C234.485 11.4821 235.174 11.7117 235.174 12.171C235.403 12.6303 234.944 12.8599 234.255 12.6303C233.566 12.6303 232.877 12.171 232.877 11.7117Z" fill="white"/>
<path d="M194.286 72.7964C196.123 70.9593 198.421 71.6482 199.339 74.4039C200.258 77.3893 199.569 81.5228 197.502 83.3599C195.664 85.1971 193.367 84.2785 192.678 81.2932C191.759 78.5375 192.678 74.8632 194.286 72.7964Z" fill="url(#paint43_linear_83_7)"/>
<path d="M195.894 73.2557C196.353 72.7964 196.813 73.0261 196.813 73.715C197.042 74.4039 196.813 75.0928 196.353 75.5521C195.894 76.0114 195.434 75.7818 195.434 75.0928C195.434 74.4039 195.434 73.715 195.894 73.2557Z" fill="white"/>
<path d="M187.165 48.2247C188.773 46.158 190.381 46.3876 191.3 48.684C191.989 50.9804 191.3 54.4251 189.692 56.4918C188.084 58.329 186.246 58.0993 185.787 55.8029C184.868 53.5065 185.557 50.2915 187.165 48.2247Z" fill="url(#paint44_linear_83_7)"/>
<path d="M188.313 48.2247C188.543 47.7655 189.002 47.7655 189.232 48.2247C189.462 48.684 189.232 49.373 189.002 49.8322C188.773 50.2915 188.313 50.2915 188.084 49.8322C187.854 49.373 188.084 48.684 188.313 48.2247Z" fill="white"/>
<path d="M199.11 49.6026C200.947 47.3062 203.244 47.5358 204.393 50.0619C205.312 52.8176 204.623 56.7215 202.555 59.0179C200.718 61.0847 198.421 60.6254 197.502 58.0993C196.583 55.3436 197.272 51.6694 199.11 49.6026Z" fill="url(#paint45_linear_83_7)"/>
<path d="M200.718 49.6026C201.177 49.1433 201.636 49.1433 201.866 49.6026C202.096 50.0619 201.866 50.9804 201.407 51.4397C200.947 51.899 200.488 51.899 200.258 51.2101C200.258 50.7508 200.258 50.0619 200.718 49.6026Z" fill="white"/>
<path d="M203.704 26.4088C205.541 23.8827 208.068 23.6531 208.987 25.7199C210.136 28.0163 209.217 31.9202 207.149 34.4462C205.082 36.9723 202.785 36.9723 201.866 34.6759C201.177 32.6091 201.866 28.9348 203.704 26.4088Z" fill="url(#paint46_linear_83_7)"/>
<path d="M205.312 26.1791C205.771 25.7199 206.231 25.7199 206.46 25.9495C206.69 26.4088 206.46 27.0977 206.001 27.7866C205.541 28.2459 205.082 28.2459 204.852 27.7866C204.852 27.557 205.082 26.6384 205.312 26.1791Z" fill="white"/>
<path d="M214.73 51.2101C217.027 48.684 220.243 48.9137 221.621 51.899C222.999 55.114 222.08 59.7068 219.554 62.2329C217.027 64.759 214.041 64.07 212.662 60.855C211.514 57.8697 212.433 53.5065 214.73 51.2101Z" fill="url(#paint47_linear_83_7)"/>
<path d="M216.797 51.2101C217.257 50.7508 217.946 50.7508 218.175 51.4397C218.405 52.1287 218.175 53.0472 217.716 53.5065C217.257 53.9658 216.567 53.9658 216.338 53.2769C216.108 52.5879 216.338 51.6694 216.797 51.2101Z" fill="white"/>
<path d="M222.54 96.6791C224.607 93.4642 229.201 91.627 232.877 92.5456C236.322 93.2345 237.471 96.4495 235.403 99.4349C233.336 102.42 228.972 104.257 225.526 103.568C221.851 102.65 220.472 99.6645 222.54 96.6791Z" fill="url(#paint48_linear_83_7)"/>
<path d="M225.756 95.0717C226.215 94.3827 227.134 94.1531 227.823 94.1531C228.512 94.3827 228.742 94.842 228.283 95.5309C227.823 96.2199 226.904 96.4495 226.215 96.4495C225.756 96.4495 225.526 95.7606 225.756 95.0717Z" fill="white"/>
<path d="M264.806 79.2264C267.103 76.0114 271.468 74.1743 274.454 75.3225C277.44 76.241 277.67 79.456 275.373 82.671C273.076 85.6563 268.941 87.4935 265.955 86.5749C262.968 85.6563 262.509 82.4414 264.806 79.2264Z" fill="url(#paint49_linear_83_7)"/>
<path d="M267.792 77.8485C268.252 77.1596 269.171 76.93 269.86 76.93C270.549 77.1596 270.549 77.8485 270.089 78.5375C269.63 79.2264 268.711 79.456 268.022 79.456C267.563 79.2264 267.333 78.5375 267.792 77.8485Z" fill="white"/>
<g style="mix-blend-mode:multiply">
<path d="M209.676 67.9739C203.934 94.3827 188.543 113.213 175.45 110.458C162.356 107.702 156.384 84.0488 162.356 57.64C168.099 31.2313 183.49 12.4006 196.583 15.1563C209.676 17.912 215.649 41.5651 209.676 67.9739Z" fill="url(#paint50_radial_83_7)"/>
</g>
<g style="mix-blend-mode:multiply">
<path d="M144.439 140.541C85.634 138.015 38.5439 125.384 39.0033 111.836C39.4627 98.5163 87.7014 89.5603 146.277 92.0863C205.082 94.6124 252.172 107.243 251.713 120.792C251.024 134.111 203.015 142.837 144.439 140.541Z" fill="url(#paint51_radial_83_7)"/>
</g>
<path d="M144.439 6.88924C134.332 4.13354 118.712 5.97067 109.753 11.4821L86.7826 25.0309C77.824 30.3127 72.5407 43.1726 75.0675 53.2769L81.729 78.7671C84.2558 88.8713 93.9035 101.502 103.092 106.554L125.833 119.414C135.021 124.695 148.574 122.858 156.154 115.51L175.22 96.9088C182.8 89.5603 188.773 75.0928 188.543 64.5293L188.084 38.1205C187.854 27.557 179.585 16.7638 169.477 13.7785L144.439 6.88924Z" fill="url(#paint52_radial_83_7)"/>
<path d="M105.389 104.717C96.2006 99.6645 86.5528 87.0342 84.026 76.93L78.9725 57.4104C76.4457 47.3062 82.1884 42.2541 91.8361 46.3876L113.429 55.5733C123.076 59.7068 132.265 71.4186 133.643 81.7524L136.859 105.406C138.237 115.739 132.035 120.103 122.847 114.821L105.389 104.717Z" fill="url(#paint53_radial_83_7)"/>
<path d="M93.6738 41.5651C84.0261 37.4316 83.5667 29.8534 92.5253 24.342L110.213 14.0081C119.171 8.72638 134.791 6.6596 144.899 9.4153L164.194 14.9267C174.301 17.6824 175.679 25.2606 167.41 31.6905L148.115 46.3876C139.845 52.8176 125.144 54.6547 115.496 50.5212L93.6738 41.5651Z" fill="url(#paint54_radial_83_7)"/>
<path d="M138.467 80.8339C137.089 70.5 142.831 56.7215 151.101 50.2915L170.396 35.3648C178.666 28.9348 185.557 32.3795 185.787 42.943L186.016 63.3811C186.246 73.9446 180.044 88.412 172.693 95.7606L157.992 110.228C150.412 117.577 143.061 115.05 141.683 104.717L138.467 80.8339Z" fill="url(#paint55_radial_83_7)"/>
<path d="M96.2006 33.298C93.4441 31.9202 94.1332 29.3941 96.8897 27.7866C99.4165 26.1791 103.092 25.4902 105.848 25.9495C109.064 26.6384 109.983 28.9348 107.686 31.2313C104.929 33.7573 99.4165 34.6759 96.2006 33.298Z" fill="url(#paint56_linear_83_7)"/>
<path d="M96.4303 31.2313C95.9709 31.0016 95.9709 30.5423 96.66 30.0831C97.3491 29.6238 98.0382 29.3941 98.7274 29.6238C99.1868 29.8534 99.1868 30.3127 98.7274 30.772C97.8085 31.2313 96.8897 31.4609 96.4303 31.2313Z" fill="white"/>
<path d="M124.225 29.3941C121.468 28.0163 122.158 25.4902 124.914 23.8827C127.441 22.2752 131.116 21.5863 133.873 22.0456C137.089 22.7345 138.007 25.0309 135.71 27.3274C132.724 29.8534 127.211 31.0016 124.225 29.3941Z" fill="url(#paint57_linear_83_7)"/>
<path d="M124.225 27.3274C123.766 27.0977 123.766 26.6384 124.455 26.1791C125.144 25.7199 125.833 25.4902 126.522 25.7199C126.981 25.9495 126.981 26.4088 126.522 26.8681C125.833 27.3274 124.684 27.557 124.225 27.3274Z" fill="white"/>
<path d="M152.249 25.9495C149.493 24.5717 150.182 22.0456 152.938 20.4381C155.465 18.8306 159.141 18.1417 161.897 18.601C165.113 19.2899 166.032 21.5863 163.735 23.8827C160.978 26.4088 155.465 27.557 152.249 25.9495Z" fill="url(#paint58_linear_83_7)"/>
<path d="M152.249 23.8827C151.79 23.6531 151.79 23.1938 152.479 22.7345C153.168 22.2752 153.857 22.0456 154.546 22.2752C155.006 22.5049 155.006 22.9642 154.546 23.4235C153.857 23.8827 152.938 24.1124 152.249 23.8827Z" fill="white"/>
<path d="M99.8759 78.3078C99.4165 74.6335 101.254 72.3371 104.47 73.4853C108.145 74.8632 111.361 79.6857 111.132 83.5896C111.132 87.2638 108.375 88.412 105.159 86.5749C102.632 85.1971 100.335 81.5228 99.8759 78.3078Z" fill="url(#paint59_linear_83_7)"/>
<path d="M101.254 76.93C101.254 76.241 101.484 75.7817 102.173 76.0114C102.862 76.241 103.322 77.1596 103.322 77.8485C103.322 78.5375 102.862 78.9967 102.403 78.7671C101.714 78.3078 101.254 77.6189 101.254 76.93Z" fill="white"/>
<path d="M151.33 97.3681C150.641 94.3827 152.249 89.7899 155.235 87.4935C157.992 85.1971 160.978 85.6563 161.667 88.8713C162.356 91.8567 160.748 96.2199 157.992 98.5163C155.006 100.813 152.249 100.353 151.33 97.3681Z" fill="url(#paint60_linear_83_7)"/>
<path d="M152.479 94.1531C152.249 93.4642 152.709 92.5456 153.168 92.0863C153.857 91.627 154.317 91.627 154.546 92.3159C154.776 93.0049 154.317 93.9234 153.857 94.3827C153.398 94.842 152.709 94.842 152.479 94.1531Z" fill="white"/>
<path d="M172.234 79.6857C171.545 76.7003 173.382 72.3371 175.909 70.2703C178.436 68.2036 180.963 68.8925 181.422 71.8778C181.882 74.8632 180.274 78.9967 177.747 81.0635C175.22 83.3599 172.693 82.671 172.234 79.6857Z" fill="url(#paint61_linear_83_7)"/>
<path d="M173.382 76.7003C173.153 76.0114 173.612 75.0928 174.072 74.8632C174.531 74.4039 175.22 74.6335 175.22 75.0928C175.45 75.7817 174.99 76.4707 174.531 76.93C173.842 77.3892 173.382 77.1596 173.382 76.7003Z" fill="white"/>
<path d="M167.41 55.5733C166.721 52.1287 168.559 47.5358 171.315 45.469C174.072 43.4023 176.828 44.3208 177.287 47.7655C177.747 51.2101 176.139 55.5733 173.382 57.6401C170.856 59.7068 168.099 58.7883 167.41 55.5733Z" fill="url(#paint62_linear_83_7)"/>
<path d="M168.559 52.1287C168.329 51.4397 168.788 50.5212 169.248 50.0619C169.707 49.6026 170.396 49.8322 170.626 50.5212C170.856 51.2101 170.396 52.1287 169.937 52.5879C169.248 53.0472 168.788 52.8176 168.559 52.1287Z" fill="white"/>
<path d="M145.128 73.026C144.21 69.5814 146.047 64.759 149.033 62.4625C152.02 60.1661 155.235 61.0847 155.925 64.5293C156.614 67.9739 155.006 72.5668 152.02 74.8632C149.263 77.1596 146.047 76.4707 145.128 73.026Z" fill="url(#paint63_linear_83_7)"/>
<path d="M146.507 69.5814C146.277 68.8925 146.736 67.9739 147.425 67.5146C148.115 67.0554 148.804 67.285 148.804 67.9739C149.033 68.6629 148.574 69.5814 147.885 70.0407C147.196 70.5 146.507 70.2703 146.507 69.5814Z" fill="white"/>
<defs>
<linearGradient id="paint0_linear_83_7" x1="97.9823" y1="107.498" x2="107.619" y2="107.95" gradientUnits="userSpaceOnUse">
<stop stop-color="#687075"/>
<stop offset="1" stop-color="#F5F7F6"/>
</linearGradient>
<linearGradient id="paint1_linear_83_7" x1="100.604" y1="106.506" x2="108.348" y2="106.506" gradientUnits="userSpaceOnUse">
<stop stop-color="#C8141C"/>
<stop offset="1" stop-color="#FF5B62"/>
</linearGradient>
<linearGradient id="paint2_linear_83_7" x1="93.5959" y1="119.549" x2="103.702" y2="120.024" gradientUnits="userSpaceOnUse">
<stop stop-color="#687075"/>
<stop offset="1" stop-color="#F5F7F6"/>
</linearGradient>
<linearGradient id="paint3_linear_83_7" x1="96.3484" y1="118.451" x2="104.472" y2="118.451" gradientUnits="userSpaceOnUse">
<stop stop-color="#C8141C"/>
<stop offset="1" stop-color="#FF5B62"/>
</linearGradient>
<linearGradient id="paint4_linear_83_7" x1="124.823" y1="107.607" x2="134.402" y2="108.057" gradientUnits="userSpaceOnUse">
<stop stop-color="#687075"/>
<stop offset="1" stop-color="#F5F7F6"/>
</linearGradient>
<linearGradient id="paint5_linear_83_7" x1="127.43" y1="106.618" x2="135.118" y2="106.618" gradientUnits="userSpaceOnUse">
<stop stop-color="#C8141C"/>
<stop offset="1" stop-color="#FF5B62"/>
</linearGradient>
<linearGradient id="paint6_linear_83_7" x1="121.729" y1="119.654" x2="131.769" y2="120.126" gradientUnits="userSpaceOnUse">
<stop stop-color="#687075"/>
<stop offset="1" stop-color="#F5F7F6"/>
</linearGradient>
<linearGradient id="paint7_linear_83_7" x1="124.464" y1="118.558" x2="132.525" y2="118.558" gradientUnits="userSpaceOnUse">
<stop stop-color="#C8141C"/>
<stop offset="1" stop-color="#FF5B62"/>
</linearGradient>
<linearGradient id="paint8_linear_83_7" x1="71.3316" y1="180.759" x2="83.8415" y2="181.347" gradientUnits="userSpaceOnUse">
<stop stop-color="#687075"/>
<stop offset="1" stop-color="#F5F7F6"/>
</linearGradient>
<linearGradient id="paint9_linear_83_7" x1="74.7544" y1="179.025" x2="84.8253" y2="179.025" gradientUnits="userSpaceOnUse">
<stop stop-color="#0E51C2"/>
<stop offset="1" stop-color="#0FAAFD"/>
</linearGradient>
<linearGradient id="paint10_linear_83_7" x1="63.9045" y1="201.19" x2="77.2232" y2="201.816" gradientUnits="userSpaceOnUse">
<stop stop-color="#687075"/>
<stop offset="1" stop-color="#F5F7F6"/>
</linearGradient>
<linearGradient id="paint11_linear_83_7" x1="67.5544" y1="199.211" x2="78.2825" y2="199.211" gradientUnits="userSpaceOnUse">
<stop stop-color="#0E51C2"/>
<stop offset="1" stop-color="#0FAAFD"/>
</linearGradient>
<linearGradient id="paint12_linear_83_7" x1="106.029" y1="180.825" x2="118.421" y2="181.408" gradientUnits="userSpaceOnUse">
<stop stop-color="#687075"/>
<stop offset="1" stop-color="#F5F7F6"/>
</linearGradient>
<linearGradient id="paint13_linear_83_7" x1="109.42" y1="179.096" x2="119.38" y2="179.096" gradientUnits="userSpaceOnUse">
<stop stop-color="#0E51C2"/>
<stop offset="1" stop-color="#0FAAFD"/>
</linearGradient>
<linearGradient id="paint14_linear_83_7" x1="100.794" y1="201.239" x2="113.973" y2="201.858" gradientUnits="userSpaceOnUse">
<stop stop-color="#687075"/>
<stop offset="1" stop-color="#F5F7F6"/>
</linearGradient>
<linearGradient id="paint15_linear_83_7" x1="104.406" y1="199.265" x2="115.003" y2="199.265" gradientUnits="userSpaceOnUse">
<stop stop-color="#0E51C2"/>
<stop offset="1" stop-color="#0FAAFD"/>
</linearGradient>
<linearGradient id="paint16_linear_83_7" x1="229.745" y1="108.032" x2="239.282" y2="108.48" gradientUnits="userSpaceOnUse">
<stop stop-color="#687075"/>
<stop offset="1" stop-color="#F5F7F6"/>
</linearGradient>
<linearGradient id="paint17_linear_83_7" x1="232.335" y1="107.055" x2="239.964" y2="107.055" gradientUnits="userSpaceOnUse">
<stop stop-color="#056802"/>
<stop offset="1" stop-color="#11FA74"/>
</linearGradient>
<linearGradient id="paint18_linear_83_7" x1="231.668" y1="120.06" x2="241.665" y2="120.53" gradientUnits="userSpaceOnUse">
<stop stop-color="#687075"/>
<stop offset="1" stop-color="#F5F7F6"/>
</linearGradient>
<linearGradient id="paint19_linear_83_7" x1="234.386" y1="118.977" x2="242.38" y2="118.977" gradientUnits="userSpaceOnUse">
<stop stop-color="#056802"/>
<stop offset="1" stop-color="#11FA74"/>
</linearGradient>
<linearGradient id="paint20_linear_83_7" x1="256.318" y1="108.139" x2="265.892" y2="108.589" gradientUnits="userSpaceOnUse">
<stop stop-color="#687075"/>
<stop offset="1" stop-color="#F5F7F6"/>
</linearGradient>
<linearGradient id="paint21_linear_83_7" x1="258.916" y1="107.166" x2="266.569" y2="107.166" gradientUnits="userSpaceOnUse">
<stop stop-color="#056802"/>
<stop offset="1" stop-color="#11FA74"/>
</linearGradient>
<linearGradient id="paint22_linear_83_7" x1="259.504" y1="120.162" x2="269.544" y2="120.634" gradientUnits="userSpaceOnUse">
<stop stop-color="#687075"/>
<stop offset="1" stop-color="#F5F7F6"/>
</linearGradient>
<linearGradient id="paint23_linear_83_7" x1="262.231" y1="119.084" x2="270.254" y2="119.084" gradientUnits="userSpaceOnUse">
<stop stop-color="#056802"/>
<stop offset="1" stop-color="#11FA74"/>
</linearGradient>
<linearGradient id="paint24_linear_83_7" x1="241.402" y1="181.08" x2="253.735" y2="181.66" gradientUnits="userSpaceOnUse">
<stop stop-color="#687075"/>
<stop offset="1" stop-color="#F5F7F6"/>
</linearGradient>
<linearGradient id="paint25_linear_83_7" x1="244.772" y1="179.375" x2="254.626" y2="179.375" gradientUnits="userSpaceOnUse">
<stop stop-color="#E68401"/>
<stop offset="1" stop-color="#FBDF1A"/>
</linearGradient>
<linearGradient id="paint26_linear_83_7" x1="244.639" y1="201.423" x2="257.752" y2="202.039" gradientUnits="userSpaceOnUse">
<stop stop-color="#687075"/>
<stop offset="1" stop-color="#F5F7F6"/>
</linearGradient>
<linearGradient id="paint27_linear_83_7" x1="248.228" y1="199.477" x2="258.703" y2="199.477" gradientUnits="userSpaceOnUse">
<stop stop-color="#E68401"/>
<stop offset="1" stop-color="#FBDF1A"/>
</linearGradient>
<linearGradient id="paint28_linear_83_7" x1="275.623" y1="181.143" x2="288.043" y2="181.727" gradientUnits="userSpaceOnUse">
<stop stop-color="#687075"/>
<stop offset="1" stop-color="#F5F7F6"/>
</linearGradient>
<linearGradient id="paint29_linear_83_7" x1="279.014" y1="179.445" x2="288.925" y2="179.445" gradientUnits="userSpaceOnUse">
<stop stop-color="#E68401"/>
<stop offset="1" stop-color="#FBDF1A"/>
</linearGradient>
<linearGradient id="paint30_linear_83_7" x1="280.98" y1="201.467" x2="294.201" y2="202.089" gradientUnits="userSpaceOnUse">
<stop stop-color="#687075"/>
<stop offset="1" stop-color="#F5F7F6"/>
</linearGradient>
<linearGradient id="paint31_linear_83_7" x1="284.596" y1="199.53" x2="295.14" y2="199.53" gradientUnits="userSpaceOnUse">
<stop stop-color="#E68401"/>
<stop offset="1" stop-color="#FBDF1A"/>
</linearGradient>
<radialGradient id="paint32_radial_83_7" cx="0" cy="0" r="1" gradientUnits="userSpaceOnUse" gradientTransform="translate(215.724 111.276) rotate(92.3672) scale(24.2151 106.433)">
<stop offset="0.0645161" stop-color="#56585A"/>
<stop offset="0.4409" stop-color="#BEC0C2"/>
<stop offset="0.5001" stop-color="#D0D2D3"/>
<stop offset="0.5902" stop-color="#E5E6E7"/>
<stop offset="0.6914" stop-color="#F4F4F4"/>
<stop offset="0.8116" stop-color="#FCFCFD"/>
<stop offset="1" stop-color="white"/>
</radialGradient>
<radialGradient id="paint33_radial_83_7" cx="0" cy="0" r="1" gradientUnits="userSpaceOnUse" gradientTransform="translate(240.916 57.5934) rotate(37.2057) scale(123.546 123.537)">
<stop stop-color="white"/>
<stop offset="0.28" stop-color="#E5E5E5"/>
<stop offset="0.4639" stop-color="#D1D1D1"/>
<stop offset="0.6229" stop-color="#CACACA"/>
<stop offset="0.8639" stop-color="#B5B5B5"/>
<stop offset="1" stop-color="#A6A6A6"/>
</radialGradient>
<radialGradient id="paint34_radial_83_7" cx="0" cy="0" r="1" gradientUnits="userSpaceOnUse" gradientTransform="translate(106.534 53.609) rotate(37.2057) scale(123.688 123.678)">
<stop stop-color="white"/>
<stop offset="0.28" stop-color="#E5E5E5"/>
<stop offset="0.4639" stop-color="#D1D1D1"/>
<stop offset="0.6229" stop-color="#CACACA"/>
<stop offset="0.8639" stop-color="#B5B5B5"/>
<stop offset="1" stop-color="#A6A6A6"/>
</radialGradient>
<radialGradient id="paint35_radial_83_7" cx="0" cy="0" r="1" gradientUnits="userSpaceOnUse" gradientTransform="translate(268.722 12.2357) rotate(37.2057) scale(245.449 245.43)">
<stop stop-color="white"/>
<stop offset="0.28" stop-color="#E5E5E5"/>
<stop offset="0.4639" stop-color="#D1D1D1"/>
<stop offset="0.6229" stop-color="#CACACA"/>
<stop offset="0.8639" stop-color="#B5B5B5"/>
<stop offset="1" stop-color="#A6A6A6"/>
</radialGradient>
<radialGradient id="paint36_radial_83_7" cx="0" cy="0" r="1" gradientUnits="userSpaceOnUse" gradientTransform="translate(253.544 115.368) rotate(37.2057) scale(82.5199 82.5135)">
<stop stop-color="white"/>
<stop offset="0.28" stop-color="#E5E5E5"/>
<stop offset="0.4639" stop-color="#D1D1D1"/>
<stop offset="0.6229" stop-color="#CACACA"/>
<stop offset="0.8639" stop-color="#B5B5B5"/>
<stop offset="1" stop-color="#A6A6A6"/>
</radialGradient>
<linearGradient id="paint37_linear_83_7" x1="301.716" y1="19.5243" x2="253.074" y2="66.8096" gradientUnits="userSpaceOnUse">
<stop stop-color="#A6A6A6"/>
<stop offset="0.2455" stop-color="#6F6F6F"/>
<stop offset="0.491" stop-color="#3F3F3F"/>
<stop offset="0.7066" stop-color="#1D1D1D"/>
<stop offset="0.8837" stop-color="#080808"/>
<stop offset="1"/>
</linearGradient>
<linearGradient id="paint38_linear_83_7" x1="288.747" y1="6.1938" x2="240.116" y2="53.4693" gradientUnits="userSpaceOnUse">
<stop stop-color="#A6A6A6"/>
<stop offset="0.2455" stop-color="#6F6F6F"/>
<stop offset="0.491" stop-color="#3F3F3F"/>
<stop offset="0.7066" stop-color="#1D1D1D"/>
<stop offset="0.8837" stop-color="#080808"/>
<stop offset="1"/>
</linearGradient>
<linearGradient id="paint39_linear_83_7" x1="289.981" y1="7.48486" x2="241.371" y2="54.7391" gradientUnits="userSpaceOnUse">
<stop stop-color="#A6A6A6"/>
<stop offset="0.2455" stop-color="#6F6F6F"/>
<stop offset="0.491" stop-color="#3F3F3F"/>
<stop offset="0.7066" stop-color="#1D1D1D"/>
<stop offset="0.8837" stop-color="#080808"/>
<stop offset="1"/>
</linearGradient>
<linearGradient id="paint40_linear_83_7" x1="276.871" y1="-6.0395" x2="228.227" y2="41.2479" gradientUnits="userSpaceOnUse">
<stop stop-color="#A6A6A6"/>
<stop offset="0.2455" stop-color="#6F6F6F"/>
<stop offset="0.491" stop-color="#3F3F3F"/>
<stop offset="0.7066" stop-color="#1D1D1D"/>
<stop offset="0.8837" stop-color="#080808"/>
<stop offset="1"/>
</linearGradient>
<linearGradient id="paint41_linear_83_7" x1="280.45" y1="-2.34685" x2="231.812" y2="44.9355" gradientUnits="userSpaceOnUse">
<stop stop-color="#A6A6A6"/>
<stop offset="0.2455" stop-color="#6F6F6F"/>
<stop offset="0.491" stop-color="#3F3F3F"/>
<stop offset="0.7066" stop-color="#1D1D1D"/>
<stop offset="0.8837" stop-color="#080808"/>
<stop offset="1"/>
</linearGradient>
<linearGradient id="paint42_linear_83_7" x1="267.469" y1="-15.6986" x2="218.832" y2="31.583" gradientUnits="userSpaceOnUse">
<stop stop-color="#A6A6A6"/>
<stop offset="0.2455" stop-color="#6F6F6F"/>
<stop offset="0.491" stop-color="#3F3F3F"/>
<stop offset="0.7066" stop-color="#1D1D1D"/>
<stop offset="0.8837" stop-color="#080808"/>
<stop offset="1"/>
</linearGradient>
<linearGradient id="paint43_linear_83_7" x1="137.321" y1="78.4296" x2="239.037" y2="77.7448" gradientUnits="userSpaceOnUse">
<stop stop-color="#A6A6A6"/>
<stop offset="0.2455" stop-color="#6F6F6F"/>
<stop offset="0.491" stop-color="#3F3F3F"/>
<stop offset="0.7066" stop-color="#1D1D1D"/>
<stop offset="0.8837" stop-color="#080808"/>
<stop offset="1"/>
</linearGradient>
<linearGradient id="paint44_linear_83_7" x1="137.136" y1="52.546" x2="238.87" y2="51.8609" gradientUnits="userSpaceOnUse">
<stop stop-color="#A6A6A6"/>
<stop offset="0.2455" stop-color="#6F6F6F"/>
<stop offset="0.491" stop-color="#3F3F3F"/>
<stop offset="0.7066" stop-color="#1D1D1D"/>
<stop offset="0.8837" stop-color="#080808"/>
<stop offset="1"/>
</linearGradient>
<linearGradient id="paint45_linear_83_7" x1="137.148" y1="54.4614" x2="238.882" y2="53.7765" gradientUnits="userSpaceOnUse">
<stop stop-color="#A6A6A6"/>
<stop offset="0.2455" stop-color="#6F6F6F"/>
<stop offset="0.491" stop-color="#3F3F3F"/>
<stop offset="0.7066" stop-color="#1D1D1D"/>
<stop offset="0.8837" stop-color="#080808"/>
<stop offset="1"/>
</linearGradient>
<linearGradient id="paint46_linear_83_7" x1="136.986" y1="30.8054" x2="238.724" y2="30.1203" gradientUnits="userSpaceOnUse">
<stop stop-color="#A6A6A6"/>
<stop offset="0.2455" stop-color="#6F6F6F"/>
<stop offset="0.491" stop-color="#3F3F3F"/>
<stop offset="0.7066" stop-color="#1D1D1D"/>
<stop offset="0.8837" stop-color="#080808"/>
<stop offset="1"/>
</linearGradient>
<linearGradient id="paint47_linear_83_7" x1="137.176" y1="56.9712" x2="238.895" y2="56.2863" gradientUnits="userSpaceOnUse">
<stop stop-color="#A6A6A6"/>
<stop offset="0.2455" stop-color="#6F6F6F"/>
<stop offset="0.491" stop-color="#3F3F3F"/>
<stop offset="0.7066" stop-color="#1D1D1D"/>
<stop offset="0.8837" stop-color="#080808"/>
<stop offset="1"/>
</linearGradient>
<linearGradient id="paint48_linear_83_7" x1="247.837" y1="148.663" x2="216.245" y2="63.3689" gradientUnits="userSpaceOnUse">
<stop stop-color="#A6A6A6"/>
<stop offset="0.2455" stop-color="#6F6F6F"/>
<stop offset="0.491" stop-color="#3F3F3F"/>
<stop offset="0.7066" stop-color="#1D1D1D"/>
<stop offset="0.8837" stop-color="#080808"/>
<stop offset="1"/>
</linearGradient>
<linearGradient id="paint49_linear_83_7" x1="289.57" y1="133.213" x2="257.972" y2="47.9046" gradientUnits="userSpaceOnUse">
<stop stop-color="#A6A6A6"/>
<stop offset="0.2455" stop-color="#6F6F6F"/>
<stop offset="0.491" stop-color="#3F3F3F"/>
<stop offset="0.7066" stop-color="#1D1D1D"/>
<stop offset="0.8837" stop-color="#080808"/>
<stop offset="1"/>
</linearGradient>
<radialGradient id="paint50_radial_83_7" cx="0" cy="0" r="1" gradientUnits="userSpaceOnUse" gradientTransform="translate(186.117 62.776) rotate(12.3789) scale(24.2198 48.7574)">
<stop offset="0.0645161" stop-color="#56585A"/>
<stop offset="0.4409" stop-color="#BEC0C2"/>
<stop offset="0.5001" stop-color="#D0D2D3"/>
<stop offset="0.5902" stop-color="#E5E6E7"/>
<stop offset="0.6914" stop-color="#F4F4F4"/>
<stop offset="0.8116" stop-color="#FCFCFD"/>
<stop offset="1" stop-color="white"/>
</radialGradient>
<radialGradient id="paint51_radial_83_7" cx="0" cy="0" r="1" gradientUnits="userSpaceOnUse" gradientTransform="translate(145.345 116.332) rotate(92.3672) scale(24.2145 106.431)">
<stop offset="0.0645161" stop-color="#56585A"/>
<stop offset="0.4409" stop-color="#BEC0C2"/>
<stop offset="0.5001" stop-color="#D0D2D3"/>
<stop offset="0.5902" stop-color="#E5E6E7"/>
<stop offset="0.6914" stop-color="#F4F4F4"/>
<stop offset="0.8116" stop-color="#FCFCFD"/>
<stop offset="1" stop-color="white"/>
</radialGradient>
<radialGradient id="paint52_radial_83_7" cx="0" cy="0" r="1" gradientUnits="userSpaceOnUse" gradientTransform="translate(133.726 53.3364) rotate(-7.48461) scale(140.332 140.293)">
<stop stop-color="white"/>
<stop offset="0.28" stop-color="#E5E5E5"/>
<stop offset="0.4639" stop-color="#D1D1D1"/>
<stop offset="0.6229" stop-color="#CACACA"/>
<stop offset="0.8639" stop-color="#B5B5B5"/>
<stop offset="1" stop-color="#A6A6A6"/>
</radialGradient>
<radialGradient id="paint53_radial_83_7" cx="0" cy="0" r="1" gradientUnits="userSpaceOnUse" gradientTransform="translate(50.7206 142.988) rotate(-7.48461) scale(116.053 116.02)">
<stop stop-color="white"/>
<stop offset="0.28" stop-color="#E5E5E5"/>
<stop offset="0.4639" stop-color="#D1D1D1"/>
<stop offset="0.6229" stop-color="#CACACA"/>
<stop offset="0.8639" stop-color="#B5B5B5"/>
<stop offset="1" stop-color="#A6A6A6"/>
</radialGradient>
<radialGradient id="paint54_radial_83_7" cx="0" cy="0" r="1" gradientUnits="userSpaceOnUse" gradientTransform="translate(126.125 2.27932) rotate(-7.48461) scale(189.738 189.685)">
<stop stop-color="white"/>
<stop offset="0.28" stop-color="#E5E5E5"/>
<stop offset="0.4639" stop-color="#D1D1D1"/>
<stop offset="0.6229" stop-color="#CACACA"/>
<stop offset="0.8639" stop-color="#B5B5B5"/>
<stop offset="1" stop-color="#A6A6A6"/>
</radialGradient>
<radialGradient id="paint55_radial_83_7" cx="0" cy="0" r="1" gradientUnits="userSpaceOnUse" gradientTransform="translate(199.188 97.6771) rotate(-7.48461) scale(123.197 123.163)">
<stop stop-color="white"/>
<stop offset="0.28" stop-color="#E5E5E5"/>
<stop offset="0.4639" stop-color="#D1D1D1"/>
<stop offset="0.6229" stop-color="#CACACA"/>
<stop offset="0.8639" stop-color="#B5B5B5"/>
<stop offset="1" stop-color="#A6A6A6"/>
</radialGradient>
<linearGradient id="paint56_linear_83_7" x1="102.924" y1="-5.39041" x2="101.421" y2="39.5909" gradientUnits="userSpaceOnUse">
<stop stop-color="#A6A6A6"/>
<stop offset="0.2455" stop-color="#6F6F6F"/>
<stop offset="0.491" stop-color="#3F3F3F"/>
<stop offset="0.7066" stop-color="#1D1D1D"/>
<stop offset="0.8837" stop-color="#080808"/>
<stop offset="1"/>
</linearGradient>
<linearGradient id="paint57_linear_83_7" x1="130.674" y1="-4.4674" x2="129.17" y2="40.5183" gradientUnits="userSpaceOnUse">
<stop stop-color="#A6A6A6"/>
<stop offset="0.2455" stop-color="#6F6F6F"/>
<stop offset="0.491" stop-color="#3F3F3F"/>
<stop offset="0.7066" stop-color="#1D1D1D"/>
<stop offset="0.8837" stop-color="#080808"/>
<stop offset="1"/>
</linearGradient>
<linearGradient id="paint58_linear_83_7" x1="158.631" y1="-3.53043" x2="157.128" y2="41.4497" gradientUnits="userSpaceOnUse">
<stop stop-color="#A6A6A6"/>
<stop offset="0.2455" stop-color="#6F6F6F"/>
<stop offset="0.491" stop-color="#3F3F3F"/>
<stop offset="0.7066" stop-color="#1D1D1D"/>
<stop offset="0.8837" stop-color="#080808"/>
<stop offset="1"/>
</linearGradient>
<linearGradient id="paint59_linear_83_7" x1="81.0775" y1="109.093" x2="116.564" y2="67.6379" gradientUnits="userSpaceOnUse">
<stop stop-color="#A6A6A6"/>
<stop offset="0.2455" stop-color="#6F6F6F"/>
<stop offset="0.491" stop-color="#3F3F3F"/>
<stop offset="0.7066" stop-color="#1D1D1D"/>
<stop offset="0.8837" stop-color="#080808"/>
<stop offset="1"/>
</linearGradient>
<linearGradient id="paint60_linear_83_7" x1="213.376" y1="121.652" x2="117.118" y2="73.176" gradientUnits="userSpaceOnUse">
<stop stop-color="#A6A6A6"/>
<stop offset="0.2455" stop-color="#6F6F6F"/>
<stop offset="0.491" stop-color="#3F3F3F"/>
<stop offset="0.7066" stop-color="#1D1D1D"/>
<stop offset="0.8837" stop-color="#080808"/>
<stop offset="1"/>
</linearGradient>
<linearGradient id="paint61_linear_83_7" x1="224.436" y1="99.6628" x2="128.202" y2="51.1984" gradientUnits="userSpaceOnUse">
<stop stop-color="#A6A6A6"/>
<stop offset="0.2455" stop-color="#6F6F6F"/>
<stop offset="0.491" stop-color="#3F3F3F"/>
<stop offset="0.7066" stop-color="#1D1D1D"/>
<stop offset="0.8837" stop-color="#080808"/>
<stop offset="1"/>
</linearGradient>
<linearGradient id="paint62_linear_83_7" x1="233.274" y1="82.1233" x2="137.029" y2="33.6534" gradientUnits="userSpaceOnUse">
<stop stop-color="#A6A6A6"/>
<stop offset="0.2455" stop-color="#6F6F6F"/>
<stop offset="0.491" stop-color="#3F3F3F"/>
<stop offset="0.7066" stop-color="#1D1D1D"/>
<stop offset="0.8837" stop-color="#080808"/>
<stop offset="1"/>
</linearGradient>
<linearGradient id="paint63_linear_83_7" x1="221.976" y1="104.562" x2="125.728" y2="56.0907" gradientUnits="userSpaceOnUse">
<stop stop-color="#A6A6A6"/>
<stop offset="0.2455" stop-color="#6F6F6F"/>
<stop offset="0.491" stop-color="#3F3F3F"/>
<stop offset="0.7066" stop-color="#1D1D1D"/>
<stop offset="0.8837" stop-color="#080808"/>
<stop offset="1"/>
</linearGradient>
<clipPath id="clip0_83_7">
<rect width="360" height="151" fill="white" transform="translate(0 94)"/>
</clipPath>
</defs>
</svg>
