<svg width="390" height="844" viewBox="0 0 390 844" fill="none" xmlns="http://www.w3.org/2000/svg">
<g clip-path="url(#clip0_15_100)">
<rect width="390" height="844" rx="8" fill="white"/>
<path d="M390 844H0V0H390V844Z" stroke="#E5E7EB"/>
<g clip-path="url(#clip1_15_100)">
<path d="M0 0H390V844H0V0Z" fill="url(#paint0_linear_15_100)"/>
<path d="M390 844H0V0H390V844Z" stroke="#E5E7EB"/>
<g opacity="0.7">
<path d="M215.25 64H174.75V24H215.25V64Z" stroke="#E5E7EB"/>
<g clip-path="url(#clip2_15_100)">
<g clip-path="url(#clip3_15_100)">
<path d="M196.477 32.9531C197.278 32.4609 197.812 31.568 197.812 30.5625C197.812 29.0086 196.554 27.75 195 27.75C193.446 27.75 192.188 29.0086 192.188 30.5625C192.188 31.575 192.722 32.4609 193.523 32.9531L189.495 41.0109C188.855 42.2906 187.195 42.6562 186.077 41.7633L179.812 36.75C180.164 36.2789 180.375 35.6953 180.375 35.0625C180.375 33.5086 179.116 32.25 177.562 32.25C176.009 32.25 174.75 33.5086 174.75 35.0625C174.75 36.6164 176.009 37.875 177.562 37.875C177.577 37.875 177.598 37.875 177.612 37.875L180.825 55.5516C181.212 57.6891 183.075 59.25 185.255 59.25H204.745C206.918 59.25 208.781 57.6961 209.175 55.5516L212.388 37.875C212.402 37.875 212.423 37.875 212.438 37.875C213.991 37.875 215.25 36.6164 215.25 35.0625C215.25 33.5086 213.991 32.25 212.438 32.25C210.884 32.25 209.625 33.5086 209.625 35.0625C209.625 35.6953 209.836 36.2789 210.188 36.75L203.923 41.7633C202.805 42.6562 201.145 42.2906 200.505 41.0109L196.477 32.9531Z" fill="#FFEB3B"/>
</g>
</g>
</g>
<g opacity="0.6">
<path d="M201 621C204.314 621 207 623.686 207 627C207 630.314 204.314 633 201 633C197.686 633 195 630.314 195 627C195 623.686 197.686 621 201 621Z" fill="#FFD700"/>
<path d="M201 621C204.314 621 207 623.686 207 627C207 630.314 204.314 633 201 633C197.686 633 195 630.314 195 627C195 623.686 197.686 621 201 621Z" stroke="#E5E7EB"/>
</g>
<g opacity="0.5">
<path d="M252.016 281.328C256.434 281.328 260.016 284.91 260.016 289.328C260.016 293.746 256.434 297.328 252.016 297.328C247.597 297.328 244.016 293.746 244.016 289.328C244.016 284.91 247.597 281.328 252.016 281.328Z" fill="#FFD700"/>
<path d="M252.016 281.328C256.434 281.328 260.016 284.91 260.016 289.328C260.016 293.746 256.434 297.328 252.016 297.328C247.597 297.328 244.016 293.746 244.016 289.328C244.016 284.91 247.597 281.328 252.016 281.328Z" stroke="#E5E7EB"/>
</g>
<g opacity="0.7">
<path d="M288.5 422C290.709 422 292.5 423.791 292.5 426C292.5 428.209 290.709 430 288.5 430C286.291 430 284.5 428.209 284.5 426C284.5 423.791 286.291 422 288.5 422Z" fill="#FFD700"/>
<path d="M288.5 422C290.709 422 292.5 423.791 292.5 426C292.5 428.209 290.709 430 288.5 430C286.291 430 284.5 428.209 284.5 426C284.5 423.791 286.291 422 288.5 422Z" stroke="#E5E7EB"/>
</g>
<g opacity="0.6">
<path d="M135.984 633C139.298 633 141.984 635.686 141.984 639C141.984 642.314 139.298 645 135.984 645C132.671 645 129.984 642.314 129.984 639C129.984 635.686 132.671 633 135.984 633Z" fill="#FFD700"/>
<path d="M135.984 633C139.298 633 141.984 635.686 141.984 639C141.984 642.314 139.298 645 135.984 645C132.671 645 129.984 642.314 129.984 639C129.984 635.686 132.671 633 135.984 633Z" stroke="#E5E7EB"/>
</g>
<g opacity="0.8">
<path d="M101.5 211C103.709 211 105.5 212.791 105.5 215C105.5 217.209 103.709 219 101.5 219C99.2909 219 97.5 217.209 97.5 215C97.5 212.791 99.2909 211 101.5 211Z" fill="#FFD700"/>
<path d="M101.5 211C103.709 211 105.5 212.791 105.5 215C105.5 217.209 103.709 219 101.5 219C99.2909 219 97.5 217.209 97.5 215C97.5 212.791 99.2909 211 101.5 211Z" stroke="#E5E7EB"/>
</g>
<g opacity="0.2" filter="url(#filter0_dd_15_100)">
<path d="M262.558 716.558C262.558 712.139 266.139 708.558 270.558 708.558H349.442C353.861 708.558 357.442 712.139 357.442 716.558V795.442C357.442 799.861 353.861 803.442 349.442 803.442H270.558C266.139 803.442 262.558 799.861 262.558 795.442V716.558Z" fill="white"/>
<path d="M327.899 758.495C333.14 758.495 337.388 762.743 337.388 767.983C337.388 773.224 333.14 777.471 327.899 777.471C322.659 777.471 318.411 773.223 318.411 767.983C318.411 762.743 322.659 758.495 327.899 758.495Z" fill="#FFD700"/>
<path d="M327.899 758.495C333.14 758.495 337.388 762.743 337.388 767.983C337.388 773.224 333.14 777.471 327.899 777.471C322.659 777.471 318.411 773.223 318.411 767.983C318.411 762.743 322.659 758.495 327.899 758.495Z" stroke="#E5E7EB"/>
<path d="M288.774 750.178C294.014 750.178 298.262 754.426 298.262 759.667C298.262 764.907 294.014 769.155 288.774 769.155C283.533 769.155 279.285 764.907 279.285 759.667C279.285 754.427 283.533 750.179 288.774 750.178Z" fill="#FFD700"/>
<path d="M288.774 750.178C294.014 750.178 298.262 754.426 298.262 759.667C298.262 764.907 294.014 769.155 288.774 769.155C283.533 769.155 279.285 764.907 279.285 759.667C279.285 754.427 283.533 750.179 288.774 750.178Z" stroke="#E5E7EB"/>
<path d="M310 746.512C315.24 746.512 319.488 750.76 319.488 756C319.488 761.24 315.24 765.488 310 765.488C304.76 765.488 300.512 761.24 300.512 756C300.512 750.76 304.76 746.512 310 746.512Z" fill="#FFD700"/>
<path d="M310 746.512C315.24 746.512 319.488 750.76 319.488 756C319.488 761.24 315.24 765.488 310 765.488C304.76 765.488 300.512 761.24 300.512 756C300.512 750.76 304.76 746.512 310 746.512Z" stroke="#E5E7EB"/>
<path d="M325.405 770.233C330.645 770.233 334.893 774.481 334.893 779.721C334.893 784.961 330.645 789.209 325.405 789.209C320.164 789.209 315.916 784.961 315.916 779.721C315.916 774.481 320.164 770.233 325.405 770.233Z" fill="#FFD700"/>
<path d="M325.405 770.233C330.645 770.233 334.893 774.481 334.893 779.721C334.893 784.961 330.645 789.209 325.405 789.209C320.164 789.209 315.916 784.961 315.916 779.721C315.916 774.481 320.164 770.233 325.405 770.233Z" stroke="#E5E7EB"/>
<path d="M286.279 761.916C291.519 761.916 295.767 766.164 295.767 771.405C295.767 776.645 291.519 780.893 286.279 780.893C281.038 780.893 276.79 776.645 276.79 771.405C276.79 766.164 281.038 761.916 286.279 761.916Z" fill="#FFD700"/>
<path d="M286.279 761.916C291.519 761.916 295.767 766.164 295.767 771.405C295.767 776.645 291.519 780.893 286.279 780.893C281.038 780.893 276.79 776.645 276.79 771.405C276.79 766.164 281.038 761.916 286.279 761.916Z" stroke="#E5E7EB"/>
<path d="M333.721 731.107C338.961 731.107 343.209 735.355 343.209 740.595C343.209 745.835 338.961 750.083 333.721 750.083C328.481 750.083 324.233 745.835 324.233 740.595C324.233 735.355 328.481 731.107 333.721 731.107Z" fill="#FFD700"/>
<path d="M333.721 731.107C338.961 731.107 343.209 735.355 343.209 740.595C343.209 745.835 338.961 750.083 333.721 750.083C328.481 750.083 324.233 745.835 324.233 740.595C324.233 735.355 328.481 731.107 333.721 731.107Z" stroke="#E5E7EB"/>
<path d="M294.595 722.79C299.835 722.79 304.083 727.038 304.083 732.279C304.083 737.519 299.835 741.767 294.595 741.767C289.355 741.767 285.107 737.519 285.107 732.279C285.107 727.038 289.355 722.79 294.595 722.79Z" fill="#FFD700"/>
<path d="M294.595 722.79C299.835 722.79 304.083 727.038 304.083 732.279C304.083 737.519 299.835 741.767 294.595 741.767C289.355 741.767 285.107 737.519 285.107 732.279C285.107 727.038 289.355 722.79 294.595 722.79Z" stroke="#E5E7EB"/>
</g>
<g opacity="0.2" filter="url(#filter1_dd_15_100)">
<path d="M26.0461 34.0462C26.0461 29.6279 29.6279 26.0461 34.0461 26.0461H93.9539C98.3722 26.0461 101.954 29.6279 101.954 34.0461V93.9539C101.954 98.3722 98.3722 101.954 93.9539 101.954H34.0462C29.6279 101.954 26.0461 98.3722 26.0461 93.9539V34.0462Z" fill="white"/>
<path d="M63.9999 56.8837C67.9301 56.8837 71.116 60.0697 71.1161 63.9999C71.1161 67.9301 67.9301 71.1161 63.9999 71.1161C60.0697 71.116 56.8837 67.9301 56.8837 63.9999C56.8837 60.0697 60.0697 56.8837 63.9999 56.8837Z" fill="#FFD700"/>
<path d="M63.9999 56.8837C67.9301 56.8837 71.116 60.0697 71.1161 63.9999C71.1161 67.9301 67.9301 71.1161 63.9999 71.1161C60.0697 71.116 56.8837 67.9301 56.8837 63.9999C56.8837 60.0697 60.0697 56.8837 63.9999 56.8837Z" stroke="#E5E7EB"/>
<path d="M85.349 70.7479C89.2792 70.7479 92.4651 73.9339 92.4652 77.8641C92.4652 81.7944 89.2793 84.9803 85.349 84.9803C81.4188 84.9803 78.2328 81.7943 78.2328 77.8641C78.2329 73.934 81.4189 70.748 85.349 70.7479Z" fill="#FFD700"/>
<path d="M85.349 70.7479C89.2792 70.7479 92.4651 73.9339 92.4652 77.8641C92.4652 81.7944 89.2793 84.9803 85.349 84.9803C81.4188 84.9803 78.2328 81.7943 78.2328 77.8641C78.2329 73.934 81.4189 70.748 85.349 70.7479Z" stroke="#E5E7EB"/>
<path d="M50.1356 78.2328C54.0658 78.2328 57.2518 81.4188 57.2518 85.349C57.2518 89.2793 54.0659 92.4652 50.1356 92.4652C46.2054 92.4651 43.0194 89.2792 43.0194 85.349C43.0195 81.4189 46.2055 78.2329 50.1356 78.2328Z" fill="#FFD700"/>
<path d="M50.1356 78.2328C54.0658 78.2328 57.2518 81.4188 57.2518 85.349C57.2518 89.2793 54.0659 92.4652 50.1356 92.4652C46.2054 92.4651 43.0194 89.2792 43.0194 85.349C43.0195 81.4189 46.2055 78.2329 50.1356 78.2328Z" stroke="#E5E7EB"/>
<path d="M77.8641 35.5347C81.7943 35.5347 84.9803 38.7207 84.9803 42.6509C84.9803 46.5811 81.7944 49.7671 77.8641 49.7671C73.9339 49.767 70.7479 46.5811 70.7479 42.6509C70.748 38.7207 73.934 35.5347 77.8641 35.5347Z" fill="#FFD700"/>
<path d="M77.8641 35.5347C81.7943 35.5347 84.9803 38.7207 84.9803 42.6509C84.9803 46.5811 81.7944 49.7671 77.8641 49.7671C73.9339 49.767 70.7479 46.5811 70.7479 42.6509C70.748 38.7207 73.934 35.5347 77.8641 35.5347Z" stroke="#E5E7EB"/>
<path d="M42.6509 43.0194C46.5811 43.0194 49.767 46.2054 49.7671 50.1356C49.7671 54.0659 46.5811 57.2518 42.6509 57.2518C38.7207 57.2518 35.5347 54.0658 35.5347 50.1356C35.5347 46.2055 38.7207 43.0195 42.6509 43.0194Z" fill="#FFD700"/>
<path d="M42.6509 43.0194C46.5811 43.0194 49.767 46.2054 49.7671 50.1356C49.7671 54.0659 46.5811 57.2518 42.6509 57.2518C38.7207 57.2518 35.5347 54.0658 35.5347 50.1356C35.5347 46.2055 38.7207 43.0195 42.6509 43.0194Z" stroke="#E5E7EB"/>
</g>
</g>
</g>
<rect x="1" y="1" width="388" height="842" rx="7" stroke="#CED4DA" stroke-width="2"/>
<defs>
<filter id="filter0_dd_15_100" x="247.558" y="703.558" width="124.885" height="124.885" filterUnits="userSpaceOnUse" color-interpolation-filters="sRGB">
<feFlood flood-opacity="0" result="BackgroundImageFix"/>
<feColorMatrix in="SourceAlpha" type="matrix" values="0 0 0 0 0 0 0 0 0 0 0 0 0 0 0 0 0 0 127 0" result="hardAlpha"/>
<feOffset dy="10"/>
<feGaussianBlur stdDeviation="7.5"/>
<feColorMatrix type="matrix" values="0 0 0 0 0 0 0 0 0 0 0 0 0 0 0 0 0 0 0.1 0"/>
<feBlend mode="normal" in2="BackgroundImageFix" result="effect1_dropShadow_15_100"/>
<feColorMatrix in="SourceAlpha" type="matrix" values="0 0 0 0 0 0 0 0 0 0 0 0 0 0 0 0 0 0 127 0" result="hardAlpha"/>
<feOffset dy="4"/>
<feGaussianBlur stdDeviation="3"/>
<feColorMatrix type="matrix" values="0 0 0 0 0 0 0 0 0 0 0 0 0 0 0 0 0 0 0.1 0"/>
<feBlend mode="normal" in2="effect1_dropShadow_15_100" result="effect2_dropShadow_15_100"/>
<feBlend mode="normal" in="SourceGraphic" in2="effect2_dropShadow_15_100" result="shape"/>
</filter>
<filter id="filter1_dd_15_100" x="11.0461" y="21.0461" width="105.908" height="105.908" filterUnits="userSpaceOnUse" color-interpolation-filters="sRGB">
<feFlood flood-opacity="0" result="BackgroundImageFix"/>
<feColorMatrix in="SourceAlpha" type="matrix" values="0 0 0 0 0 0 0 0 0 0 0 0 0 0 0 0 0 0 127 0" result="hardAlpha"/>
<feOffset dy="10"/>
<feGaussianBlur stdDeviation="7.5"/>
<feColorMatrix type="matrix" values="0 0 0 0 0 0 0 0 0 0 0 0 0 0 0 0 0 0 0.1 0"/>
<feBlend mode="normal" in2="BackgroundImageFix" result="effect1_dropShadow_15_100"/>
<feColorMatrix in="SourceAlpha" type="matrix" values="0 0 0 0 0 0 0 0 0 0 0 0 0 0 0 0 0 0 127 0" result="hardAlpha"/>
<feOffset dy="4"/>
<feGaussianBlur stdDeviation="3"/>
<feColorMatrix type="matrix" values="0 0 0 0 0 0 0 0 0 0 0 0 0 0 0 0 0 0 0.1 0"/>
<feBlend mode="normal" in2="effect1_dropShadow_15_100" result="effect2_dropShadow_15_100"/>
<feBlend mode="normal" in="SourceGraphic" in2="effect2_dropShadow_15_100" result="shape"/>
</filter>
<linearGradient id="paint0_linear_15_100" x1="0" y1="422" x2="390" y2="422" gradientUnits="userSpaceOnUse">
<stop stop-color="#1A237E"/>
<stop offset="1" stop-color="#283593"/>
</linearGradient>
<clipPath id="clip0_15_100">
<rect width="390" height="844" rx="8" fill="white"/>
</clipPath>
<clipPath id="clip1_15_100">
<path d="M0 0H390V844H0V0Z" fill="white"/>
</clipPath>
<clipPath id="clip2_15_100">
<rect width="40.5" height="36" fill="white" transform="translate(174.75 25.5)"/>
</clipPath>
<clipPath id="clip3_15_100">
<path d="M174.75 25.5H215.25V61.5H174.75V25.5Z" fill="white"/>
</clipPath>
</defs>
</svg>
