<svg width="15" height="16" viewBox="0 0 15 16" fill="none" xmlns="http://www.w3.org/2000/svg">
<g clip-path="url(#clip0_74_2141)">
<path d="M8.54688 2.5C8.54688 1.94687 8.1 1.5 7.54688 1.5C6.99375 1.5 6.54688 1.94687 6.54688 2.5V7H2.04688C1.49375 7 1.04688 7.44688 1.04688 8C1.04688 8.55312 1.49375 9 2.04688 9H6.54688V13.5C6.54688 14.0531 6.99375 14.5 7.54688 14.5C8.1 14.5 8.54688 14.0531 8.54688 13.5V9H13.0469C13.6 9 14.0469 8.55312 14.0469 8C14.0469 7.44688 13.6 7 13.0469 7H8.54688V2.5Z" fill="#E5C158"/>
</g>
<defs>
<clipPath id="clip0_74_2141">
<path d="M0.546875 0H14.5469V16H0.546875V0Z" fill="white"/>
</clipPath>
</defs>
</svg>
