<svg width="17" height="16" viewBox="0 0 17 16" fill="none" xmlns="http://www.w3.org/2000/svg">
<g clip-path="url(#clip0_76_2497)">
<path d="M8.1875 0C10.3092 0 12.3441 0.842855 13.8444 2.34315C15.3446 3.84344 16.1875 5.87827 16.1875 8C16.1875 10.1217 15.3446 12.1566 13.8444 13.6569C12.3441 15.1571 10.3092 16 8.1875 16C6.06577 16 4.03094 15.1571 2.53065 13.6569C1.03035 12.1566 0.1875 10.1217 0.1875 8C0.1875 5.87827 1.03035 3.84344 2.53065 2.34315C4.03094 0.842855 6.06577 0 8.1875 0ZM7.4375 3.75V8C7.4375 8.25 7.5625 8.48438 7.77187 8.625L10.7719 10.625C11.1156 10.8562 11.5813 10.7625 11.8125 10.4156C12.0437 10.0687 11.95 9.60625 11.6031 9.375L8.9375 7.6V3.75C8.9375 3.33437 8.60312 3 8.1875 3C7.77187 3 7.4375 3.33437 7.4375 3.75Z" fill="#FDE047"/>
</g>
<defs>
<clipPath id="clip0_76_2497">
<path d="M0.1875 0H16.1875V16H0.1875V0Z" fill="white"/>
</clipPath>
</defs>
</svg>
