<svg width="12" height="15" viewBox="0 0 12 15" fill="none" xmlns="http://www.w3.org/2000/svg">
<path d="M11.25 14.75H0.75V0.75H11.25V14.75Z" stroke="#E5E7EB"/>
<path d="M10.1179 4.86797C10.4597 4.52618 10.4597 3.9711 10.1179 3.6293C9.77615 3.28751 9.22107 3.28751 8.87927 3.6293L5.99998 6.51133L3.11794 3.63204C2.77615 3.29024 2.22107 3.29024 1.87927 3.63204C1.53748 3.97383 1.53748 4.52891 1.87927 4.87071L4.7613 7.75001L1.88201 10.632C1.54021 10.9738 1.54021 11.5289 1.88201 11.8707C2.2238 12.2125 2.77888 12.2125 3.12068 11.8707L5.99998 8.98868L8.88201 11.868C9.2238 12.2098 9.77888 12.2098 10.1207 11.868C10.4625 11.5262 10.4625 10.9711 10.1207 10.6293L7.23865 7.75001L10.1179 4.86797Z" fill="white"/>
</svg>
