<svg width="20" height="21" viewBox="0 0 20 21" fill="none" xmlns="http://www.w3.org/2000/svg">
<g clip-path="url(#clip0_74_2137)">
<path d="M20 3.625C20 4.32812 19.4414 4.97656 18.5 5.5C17.3633 6.12891 15.668 6.57422 13.7227 6.70703C13.5781 6.63672 13.4336 6.57031 13.2812 6.51172C11.7422 5.86719 9.69531 5.5 7.5 5.5C7.17578 5.5 6.85938 5.50781 6.54297 5.52344L6.5 5.5C5.55859 4.97656 5 4.32812 5 3.625C5 1.89844 8.35938 0.5 12.5 0.5C16.6406 0.5 20 1.89844 20 3.625ZM6.27734 6.79297C6.67578 6.76563 7.08594 6.75 7.5 6.75C9.92969 6.75 12.0859 7.23047 13.457 7.97656C14.4258 8.50391 15 9.16016 15 9.875C15 10.0312 14.9727 10.1836 14.918 10.332C14.7383 10.8477 14.2539 11.3203 13.5508 11.7188C13.5469 11.7227 13.5391 11.7227 13.5352 11.7266C13.5234 11.7344 13.5117 11.7383 13.5 11.7461C12.1328 12.5039 9.95312 12.9961 7.5 12.9961C5.17188 12.9961 3.08984 12.5547 1.71094 11.8594C1.63672 11.8242 1.56641 11.7852 1.49609 11.7461C0.558594 11.2266 0 10.5781 0 9.875C0 8.51562 2.08594 7.35547 5 6.92969C5.41016 6.87109 5.83594 6.82422 6.27734 6.79297ZM16.25 9.875C16.25 9.01953 15.8359 8.31641 15.3086 7.78906C16.4141 7.61719 17.4258 7.34375 18.2852 6.98828C18.9219 6.72266 19.5156 6.39453 20 5.99219V7.375C20 8.12891 19.3555 8.82422 18.2891 9.36328C17.7188 9.65234 17.0234 9.89844 16.2422 10.0859C16.2461 10.0156 16.25 9.94922 16.25 9.87891V9.875ZM15 13.625C15 14.3281 14.4414 14.9766 13.5 15.5C13.4297 15.5391 13.3594 15.5742 13.2852 15.6133C11.9102 16.3086 9.82812 16.75 7.5 16.75C5.04688 16.75 2.86719 16.2578 1.5 15.5C0.558594 14.9766 0 14.3281 0 13.625V12.2422C0.488281 12.6445 1.07813 12.9727 1.71484 13.2383C3.25781 13.8828 5.30469 14.25 7.5 14.25C9.69531 14.25 11.7422 13.8828 13.2852 13.2383C13.5898 13.1133 13.8828 12.9688 14.1602 12.8125C14.3984 12.6797 14.6211 12.5312 14.832 12.375C14.8906 12.332 14.9453 12.2852 15 12.2422V12.375V12.5977V13.625ZM16.25 13.625V12.375V11.3633C16.9922 11.1992 17.6758 10.9922 18.2852 10.7383C18.9219 10.4727 19.5156 10.1445 20 9.74219V11.125C20 11.5352 19.8047 11.9453 19.418 12.332C18.7812 12.9688 17.6602 13.4922 16.2422 13.832C16.2461 13.7656 16.25 13.6953 16.25 13.625ZM7.5 18C9.69531 18 11.7422 17.6328 13.2852 16.9883C13.9219 16.7227 14.5156 16.3945 15 15.9922V17.375C15 19.1016 11.6406 20.5 7.5 20.5C3.35938 20.5 0 19.1016 0 17.375V15.9922C0.488281 16.3945 1.07813 16.7227 1.71484 16.9883C3.25781 17.6328 5.30469 18 7.5 18Z" fill="#E5C158"/>
</g>
<defs>
<clipPath id="clip0_74_2137">
<path d="M0 0.5H20V20.5H0V0.5Z" fill="white"/>
</clipPath>
</defs>
</svg>
