<svg width="15" height="15" viewBox="0 0 15 15" fill="none" xmlns="http://www.w3.org/2000/svg">
<g clip-path="url(#clip0_54_1732)">
<g clip-path="url(#clip1_54_1732)">
<path d="M7.82812 0.75H11.2215C11.5688 0.75 11.9023 0.889453 12.1484 1.13555L14.0051 2.99219C14.2512 3.23828 14.3906 3.57188 14.3906 3.91914V9.9375C14.3906 10.6621 13.8027 11.25 13.0781 11.25H7.82812C7.10352 11.25 6.51562 10.6621 6.51562 9.9375V2.0625C6.51562 1.33789 7.10352 0.75 7.82812 0.75ZM1.70312 4.25H5.64062V6H2.14062V13H7.39062V12.125H9.14062V13.4375C9.14062 14.1621 8.55273 14.75 7.82812 14.75H1.70312C0.978516 14.75 0.390625 14.1621 0.390625 13.4375V5.5625C0.390625 4.83789 0.978516 4.25 1.70312 4.25Z" fill="#FACC15"/>
</g>
</g>
<defs>
<clipPath id="clip0_54_1732">
<rect width="14" height="14" fill="white" transform="translate(0.390625 0.75)"/>
</clipPath>
<clipPath id="clip1_54_1732">
<path d="M0.390625 0.75H14.3906V14.75H0.390625V0.75Z" fill="white"/>
</clipPath>
</defs>
</svg>
