<svg width="19" height="16" viewBox="0 0 19 16" fill="none" xmlns="http://www.w3.org/2000/svg">
<g clip-path="url(#clip0_54_1665)">
<path d="M10.5938 3.3125C10.95 3.09375 11.1875 2.69687 11.1875 2.25C11.1875 1.55937 10.6281 1 9.9375 1C9.24687 1 8.6875 1.55937 8.6875 2.25C8.6875 2.7 8.925 3.09375 9.28125 3.3125L7.49062 6.89375C7.20625 7.4625 6.46875 7.625 5.97188 7.22813L3.1875 5C3.34375 4.79063 3.4375 4.53125 3.4375 4.25C3.4375 3.55938 2.87812 3 2.1875 3C1.49687 3 0.9375 3.55938 0.9375 4.25C0.9375 4.94062 1.49687 5.5 2.1875 5.5C2.19375 5.5 2.20312 5.5 2.20938 5.5L3.6375 13.3562C3.80938 14.3062 4.6375 15 5.60625 15H14.2688C15.2344 15 16.0625 14.3094 16.2375 13.3562L17.6656 5.5C17.6719 5.5 17.6812 5.5 17.6875 5.5C18.3781 5.5 18.9375 4.94062 18.9375 4.25C18.9375 3.55938 18.3781 3 17.6875 3C16.9969 3 16.4375 3.55938 16.4375 4.25C16.4375 4.53125 16.5312 4.79063 16.6875 5L13.9031 7.22813C13.4062 7.625 12.6687 7.4625 12.3844 6.89375L10.5938 3.3125Z" fill="#1E3A8A"/>
</g>
<defs>
<clipPath id="clip0_54_1665">
<path d="M0.9375 0H18.9375V16H0.9375V0Z" fill="white"/>
</clipPath>
</defs>
</svg>
