<svg width="18" height="19" viewBox="0 0 18 19" fill="none" xmlns="http://www.w3.org/2000/svg">
<g clip-path="url(#clip0_76_2488)">
<path d="M16.5797 1.01287C15.8098 0.242944 14.5652 0.242944 13.7953 1.01287L12.7371 2.06755L16.1789 5.50935L17.2371 4.45115C18.007 3.68123 18.007 2.43669 17.2371 1.66677L16.5797 1.01287ZM6.06094 8.74724C5.84648 8.96169 5.68125 9.22537 5.58633 9.51716L4.5457 12.639C4.44375 12.9414 4.52461 13.2754 4.74961 13.5039C4.97461 13.7324 5.30859 13.8097 5.61445 13.7078L8.73633 12.6672C9.02461 12.5722 9.28828 12.407 9.50625 12.1926L15.3879 6.3074L11.9426 2.86209L6.06094 8.74724ZM3.375 2.49998C1.51172 2.49998 0 4.01169 0 5.87498V14.875C0 16.7383 1.51172 18.25 3.375 18.25H12.375C14.2383 18.25 15.75 16.7383 15.75 14.875V11.5C15.75 10.8777 15.2473 10.375 14.625 10.375C14.0027 10.375 13.5 10.8777 13.5 11.5V14.875C13.5 15.4972 12.9973 16 12.375 16H3.375C2.75273 16 2.25 15.4972 2.25 14.875V5.87498C2.25 5.25271 2.75273 4.74998 3.375 4.74998H6.75C7.37227 4.74998 7.875 4.24724 7.875 3.62498C7.875 3.00271 7.37227 2.49998 6.75 2.49998H3.375Z" fill="white"/>
</g>
<defs>
<clipPath id="clip0_76_2488">
<path d="M0 0.25H18V18.25H0V0.25Z" fill="white"/>
</clipPath>
</defs>
</svg>
