<svg width="15" height="15" viewBox="0 0 15 15" fill="none" xmlns="http://www.w3.org/2000/svg">
<g clip-path="url(#clip0_1_245)">
<g clip-path="url(#clip1_1_245)">
<path d="M0.278495 2.25117C0.458964 1.86836 0.841776 1.625 1.2656 1.625H13.0781C13.5019 1.625 13.8847 1.86836 14.0652 2.25117C14.2457 2.63398 14.191 3.08516 13.923 3.41328L8.92185 9.52461V13C8.92185 13.3309 8.73592 13.6344 8.43787 13.782C8.13982 13.9297 7.78709 13.8996 7.52185 13.7L5.77185 12.3875C5.55037 12.2234 5.42185 11.9637 5.42185 11.6875V9.52461L0.417948 3.41055C0.152714 3.08516 0.0952917 2.63125 0.278495 2.25117Z" fill="#FACC15"/>
</g>
</g>
<defs>
<clipPath id="clip0_1_245">
<rect width="14" height="14" fill="white" transform="translate(0.171875 0.75)"/>
</clipPath>
<clipPath id="clip1_1_245">
<path d="M0.171875 0.75H14.1719V14.75H0.171875V0.75Z" fill="white"/>
</clipPath>
</defs>
</svg>
