<svg width="24" height="19" viewBox="0 0 24 19" fill="none" xmlns="http://www.w3.org/2000/svg">
<g clip-path="url(#clip0_1_412)">
<g clip-path="url(#clip1_1_412)">
<path d="M7.39062 2.5C3.66406 2.5 0.640625 5.52344 0.640625 9.25C0.640625 12.9766 3.66406 16 7.39062 16H16.3906C20.1172 16 23.1406 12.9766 23.1406 9.25C23.1406 5.52344 20.1172 2.5 16.3906 2.5H7.39062ZM18.0781 6.15625C18.4511 6.15625 18.8088 6.30441 19.0725 6.56813C19.3362 6.83185 19.4844 7.18954 19.4844 7.5625C19.4844 7.93546 19.3362 8.29315 19.0725 8.55687C18.8088 8.82059 18.4511 8.96875 18.0781 8.96875C17.7052 8.96875 17.3475 8.82059 17.0838 8.55687C16.82 8.29315 16.6719 7.93546 16.6719 7.5625C16.6719 7.18954 16.82 6.83185 17.0838 6.56813C17.3475 6.30441 17.7052 6.15625 18.0781 6.15625ZM14.4219 10.9375C14.4219 10.5645 14.57 10.2069 14.8338 9.94313C15.0975 9.67941 15.4552 9.53125 15.8281 9.53125C16.2011 9.53125 16.5588 9.67941 16.8225 9.94313C17.0862 10.2069 17.2344 10.5645 17.2344 10.9375C17.2344 11.3105 17.0862 11.6681 16.8225 11.9319C16.5588 12.1956 16.2011 12.3438 15.8281 12.3438C15.4552 12.3438 15.0975 12.1956 14.8338 11.9319C14.57 11.6681 14.4219 11.3105 14.4219 10.9375ZM6.54688 7.28125C6.54688 6.81367 6.92305 6.4375 7.39062 6.4375C7.8582 6.4375 8.23438 6.81367 8.23438 7.28125V8.40625H9.35938C9.82695 8.40625 10.2031 8.78242 10.2031 9.25C10.2031 9.71758 9.82695 10.0938 9.35938 10.0938H8.23438V11.2188C8.23438 11.6863 7.8582 12.0625 7.39062 12.0625C6.92305 12.0625 6.54688 11.6863 6.54688 11.2188V10.0938H5.42188C4.9543 10.0938 4.57812 9.71758 4.57812 9.25C4.57812 8.78242 4.9543 8.40625 5.42188 8.40625H6.54688V7.28125Z" fill="#93C5FD"/>
</g>
</g>
<defs>
<clipPath id="clip0_1_412">
<rect width="22.5" height="18" fill="white" transform="translate(0.640625 0.25)"/>
</clipPath>
<clipPath id="clip1_1_412">
<path d="M0.640625 0.25H23.1406V18.25H0.640625V0.25Z" fill="white"/>
</clipPath>
</defs>
</svg>
