<svg width="20" height="19" viewBox="0 0 20 19" fill="none" xmlns="http://www.w3.org/2000/svg">
<path d="M4.55859 0.820312C4.73437 0.582031 5.01562 0.4375 5.3125 0.4375H14.6875C14.9844 0.4375 15.2656 0.578125 15.4414 0.820312L19.8164 6.75781C20.082 7.11719 20.0547 7.61328 19.7578 7.94531L10.6953 17.9453C10.5195 18.1406 10.2656 18.2539 10 18.2539C9.73437 18.2539 9.48437 18.1406 9.30469 17.9453L0.242187 7.94531C-0.0585944 7.61328 -0.0820319 7.11719 0.183593 6.75781L4.55859 0.820312ZM6.0625 2.375C5.93359 2.47266 5.89844 2.64844 5.98047 2.78516L8.22266 6.51953L2.47266 7C2.3125 7.01172 2.1875 7.14844 2.1875 7.3125C2.1875 7.47656 2.3125 7.60938 2.47266 7.625L9.97266 8.25C9.98828 8.25 10.0078 8.25 10.0234 8.25L17.5234 7.625C17.6836 7.61328 17.8086 7.47656 17.8086 7.3125C17.8086 7.14844 17.6836 7.01562 17.5234 7L11.7773 6.52344L14.0195 2.78906C14.1016 2.65234 14.0664 2.47266 13.9375 2.37891C13.8086 2.28516 13.6289 2.30078 13.5195 2.41797L10 6.22656L6.48047 2.41406C6.37109 2.29688 6.19141 2.28125 6.0625 2.375Z" fill="#FBBF24"/>
</svg>
