<svg width="17" height="16" viewBox="0 0 17 16" fill="none" xmlns="http://www.w3.org/2000/svg">
<g clip-path="url(#clip0_54_1765)">
<path d="M2.79688 2.34375L1.73438 1.28125C1.2625 0.809375 0.453125 1.14375 0.453125 1.80938V5.25C0.453125 5.66563 0.7875 6 1.20312 6H4.64375C5.3125 6 5.64688 5.19063 5.175 4.71875L4.2125 3.75625C5.29688 2.67188 6.79688 2 8.45312 2C11.7656 2 14.4531 4.6875 14.4531 8C14.4531 11.3125 11.7656 14 8.45312 14C7.17812 14 5.99688 13.6031 5.025 12.925C4.57188 12.6094 3.95 12.7188 3.63125 13.1719C3.3125 13.625 3.425 14.2469 3.87812 14.5656C5.17812 15.4688 6.75625 16 8.45312 16C12.8719 16 16.4531 12.4187 16.4531 8C16.4531 3.58125 12.8719 0 8.45312 0C6.24375 0 4.24375 0.896875 2.79688 2.34375ZM8.45312 4C8.0375 4 7.70312 4.33437 7.70312 4.75V8C7.70312 8.2 7.78125 8.39062 7.92188 8.53125L10.1719 10.7812C10.4656 11.075 10.9406 11.075 11.2312 10.7812C11.5219 10.4875 11.525 10.0125 11.2312 9.72188L9.2 7.69063V4.75C9.2 4.33437 8.86562 4 8.45 4H8.45312Z" fill="#FACC15"/>
</g>
<defs>
<clipPath id="clip0_54_1765">
<path d="M0.453125 0H16.4531V16H0.453125V0Z" fill="white"/>
</clipPath>
</defs>
</svg>
