<svg width="21" height="19" viewBox="0 0 21 19" fill="none" xmlns="http://www.w3.org/2000/svg">
<g clip-path="url(#clip0_1_407)">
<g clip-path="url(#clip1_1_407)">
<path d="M20.4617 9.23242C20.4617 9.86523 19.9344 10.3609 19.3367 10.3609H18.2117L18.2363 15.993C18.2363 16.0879 18.2293 16.1828 18.2188 16.2777V16.8438C18.2188 17.6207 17.5895 18.25 16.8125 18.25H16.25C16.2113 18.25 16.1727 18.25 16.134 18.2465C16.0848 18.25 16.0355 18.25 15.9863 18.25H14.8438H14C13.223 18.25 12.5938 17.6207 12.5938 16.8438V16V13.75C12.5938 13.1277 12.091 12.625 11.4688 12.625H9.21875C8.59648 12.625 8.09375 13.1277 8.09375 13.75V16V16.8438C8.09375 17.6207 7.46445 18.25 6.6875 18.25H5.84375H4.72227C4.66953 18.25 4.6168 18.2465 4.56406 18.243C4.52187 18.2465 4.47969 18.25 4.4375 18.25H3.875C3.09805 18.25 2.46875 17.6207 2.46875 16.8438V12.9062C2.46875 12.8746 2.46875 12.8395 2.47227 12.8078V10.3609H1.34375C0.710938 10.3609 0.21875 9.86875 0.21875 9.23242C0.21875 8.91602 0.324219 8.63477 0.570312 8.38867L9.58437 0.53125C9.83047 0.285156 10.1117 0.25 10.3578 0.25C10.6039 0.25 10.8852 0.320312 11.0961 0.496094L20.075 8.38867C20.3562 8.63477 20.4969 8.91602 20.4617 9.23242Z" fill="#FACC15"/>
</g>
</g>
<defs>
<clipPath id="clip0_1_407">
<rect width="20.25" height="18" fill="white" transform="translate(0.21875 0.25)"/>
</clipPath>
<clipPath id="clip1_1_407">
<path d="M0.21875 0.25H20.4688V18.25H0.21875V0.25Z" fill="white"/>
</clipPath>
</defs>
</svg>
