<svg width="19" height="19" viewBox="0 0 19 19" fill="none" xmlns="http://www.w3.org/2000/svg">
<g clip-path="url(#clip0_76_2482)">
<g clip-path="url(#clip1_76_2482)">
<path d="M8.2543 3.97305L12.5715 8.29023C12.8246 8.54336 12.9688 8.89141 12.9688 9.25C12.9688 9.60859 12.8246 9.95664 12.5715 10.2098L8.2543 14.527C8.0293 14.752 7.72695 14.875 7.41055 14.875C6.75312 14.875 6.21875 14.3406 6.21875 13.6832V11.5H1.71875C1.09648 11.5 0.59375 10.9973 0.59375 10.375V8.125C0.59375 7.50273 1.09648 7 1.71875 7H6.21875V4.8168C6.21875 4.15937 6.75312 3.625 7.41055 3.625C7.72695 3.625 8.0293 3.75156 8.2543 3.97305ZM12.9688 14.875H15.2188C15.841 14.875 16.3438 14.3723 16.3438 13.75V4.75C16.3438 4.12773 15.841 3.625 15.2188 3.625H12.9688C12.3465 3.625 11.8438 3.12227 11.8438 2.5C11.8438 1.87773 12.3465 1.375 12.9688 1.375H15.2188C17.082 1.375 18.5938 2.88672 18.5938 4.75V13.75C18.5938 15.6133 17.082 17.125 15.2188 17.125H12.9688C12.3465 17.125 11.8438 16.6223 11.8438 16C11.8438 15.3777 12.3465 14.875 12.9688 14.875Z" fill="white"/>
</g>
</g>
<defs>
<clipPath id="clip0_76_2482">
<rect width="18" height="18" fill="white" transform="translate(0.59375 0.25)"/>
</clipPath>
<clipPath id="clip1_76_2482">
<path d="M0.59375 0.25H18.5938V18.25H0.59375V0.25Z" fill="white"/>
</clipPath>
</defs>
</svg>
