<svg width="20" height="16" viewBox="0 0 20 16" fill="none" xmlns="http://www.w3.org/2000/svg">
<g clip-path="url(#clip0_74_2211)">
<path d="M8.59061 1.07188C7.71249 0.193753 6.28749 0.193753 5.40936 1.07188L1.07186 5.40938C0.193738 6.2875 0.193738 7.7125 1.07186 8.59063L5.40936 12.9281C6.28749 13.8063 7.71249 13.8063 8.59061 12.9281L12.9281 8.59063C13.8062 7.7125 13.8062 6.2875 12.9281 5.40938L8.59061 1.07188ZM6.24999 7C6.24999 6.80109 6.32901 6.61032 6.46966 6.46967C6.61031 6.32902 6.80108 6.25 6.99999 6.25C7.1989 6.25 7.38967 6.32902 7.53032 6.46967C7.67097 6.61032 7.74999 6.80109 7.74999 7C7.74999 7.19892 7.67097 7.38968 7.53032 7.53033C7.38967 7.67099 7.1989 7.75 6.99999 7.75C6.80108 7.75 6.61031 7.67099 6.46966 7.53033C6.32901 7.38968 6.24999 7.19892 6.24999 7ZM2.99999 6.25C3.1989 6.25 3.38967 6.32902 3.53032 6.46967C3.67097 6.61032 3.74999 6.80109 3.74999 7C3.74999 7.19892 3.67097 7.38968 3.53032 7.53033C3.38967 7.67099 3.1989 7.75 2.99999 7.75C2.80108 7.75 2.61031 7.67099 2.46966 7.53033C2.32901 7.38968 2.24999 7.19892 2.24999 7C2.24999 6.80109 2.32901 6.61032 2.46966 6.46967C2.61031 6.32902 2.80108 6.25 2.99999 6.25ZM6.99999 11.75C6.80108 11.75 6.61031 11.671 6.46966 11.5303C6.32901 11.3897 6.24999 11.1989 6.24999 11C6.24999 10.8011 6.32901 10.6103 6.46966 10.4697C6.61031 10.329 6.80108 10.25 6.99999 10.25C7.1989 10.25 7.38967 10.329 7.53032 10.4697C7.67097 10.6103 7.74999 10.8011 7.74999 11C7.74999 11.1989 7.67097 11.3897 7.53032 11.5303C7.38967 11.671 7.1989 11.75 6.99999 11.75ZM11 6.25C11.1989 6.25 11.3897 6.32902 11.5303 6.46967C11.671 6.61032 11.75 6.80109 11.75 7C11.75 7.19892 11.671 7.38968 11.5303 7.53033C11.3897 7.67099 11.1989 7.75 11 7.75C10.8011 7.75 10.6103 7.67099 10.4697 7.53033C10.329 7.38968 10.25 7.19892 10.25 7C10.25 6.80109 10.329 6.61032 10.4697 6.46967C10.6103 6.32902 10.8011 6.25 11 6.25ZM6.99999 3.75C6.80108 3.75 6.61031 3.67099 6.46966 3.53033C6.32901 3.38968 6.24999 3.19892 6.24999 3C6.24999 2.80109 6.32901 2.61033 6.46966 2.46967C6.61031 2.32902 6.80108 2.25 6.99999 2.25C7.1989 2.25 7.38967 2.32902 7.53032 2.46967C7.67097 2.61033 7.74999 2.80109 7.74999 3C7.74999 3.19892 7.67097 3.38968 7.53032 3.53033C7.38967 3.67099 7.1989 3.75 6.99999 3.75ZM9.99999 14C9.99999 15.1031 10.8969 16 12 16H18C19.1031 16 20 15.1031 20 14V8C20 6.89688 19.1031 6 18 6H14.4281C14.7906 7.125 14.525 8.40625 13.6344 9.29688L9.99999 12.9313V14ZM15 10.25C15.1989 10.25 15.3897 10.329 15.5303 10.4697C15.671 10.6103 15.75 10.8011 15.75 11C15.75 11.1989 15.671 11.3897 15.5303 11.5303C15.3897 11.671 15.1989 11.75 15 11.75C14.8011 11.75 14.6103 11.671 14.4697 11.5303C14.329 11.3897 14.25 11.1989 14.25 11C14.25 10.8011 14.329 10.6103 14.4697 10.4697C14.6103 10.329 14.8011 10.25 15 10.25Z" fill="#F87171"/>
</g>
<defs>
<clipPath id="clip0_74_2211">
<path d="M0 0H20V16H0V0Z" fill="white"/>
</clipPath>
</defs>
</svg>
