<svg width="18" height="19" viewBox="0 0 18 19" fill="none" xmlns="http://www.w3.org/2000/svg">
<g clip-path="url(#clip0_54_1871)">
<path d="M0.144141 1.59297C0.0492187 1.45234 0 1.28359 0 1.11484C0 0.636719 0.386719 0.25 0.864844 0.25H4.70742C5.10117 0.25 5.47031 0.457422 5.6707 0.794922L8.07891 4.80625C6.38438 5.0207 4.86914 5.81172 3.74063 6.98242L0.144141 1.59297ZM17.8523 1.59297L14.2594 6.98242C13.1309 5.81172 11.6156 5.0207 9.92109 4.80625L12.3293 0.794922C12.5332 0.457422 12.8988 0.25 13.2926 0.25H17.1352C17.6133 0.25 18 0.636719 18 1.11484C18 1.28359 17.9508 1.45234 17.8559 1.59297H17.8523ZM2.8125 12.0625C2.8125 10.4215 3.4644 8.84766 4.62478 7.68728C5.78516 6.5269 7.35897 5.875 9 5.875C10.641 5.875 12.2148 6.5269 13.3752 7.68728C14.5356 8.84766 15.1875 10.4215 15.1875 12.0625C15.1875 13.7035 14.5356 15.2773 13.3752 16.4377C12.2148 17.5981 10.641 18.25 9 18.25C7.35897 18.25 5.78516 17.5981 4.62478 16.4377C3.4644 15.2773 2.8125 13.7035 2.8125 12.0625ZM9.29531 8.72617C9.17578 8.48008 8.82773 8.48008 8.70469 8.72617L7.91719 10.3223C7.86797 10.4207 7.77656 10.4875 7.67109 10.5016L5.90625 10.7582C5.63555 10.7969 5.53008 11.1273 5.72344 11.3207L6.99961 12.5652C7.07695 12.6426 7.11211 12.748 7.09453 12.857L6.79219 14.6113C6.74648 14.8785 7.02773 15.0859 7.27031 14.9594L8.84531 14.1297C8.94023 14.0805 9.05625 14.0805 9.15117 14.1297L10.7262 14.9594C10.9688 15.0859 11.25 14.882 11.2043 14.6113L10.902 12.857C10.8844 12.7516 10.9195 12.6426 10.9969 12.5652L12.273 11.3207C12.4699 11.1309 12.3609 10.8004 12.0902 10.7582L10.3289 10.5016C10.2234 10.4875 10.1285 10.4172 10.0828 10.3223L9.29531 8.72617Z" fill="#FBBF24"/>
</g>
<defs>
<clipPath id="clip0_54_1871">
<path d="M0 0.25H18V18.25H0V0.25Z" fill="white"/>
</clipPath>
</defs>
</svg>
