<svg width="14" height="19" viewBox="0 0 14 19" fill="none" xmlns="http://www.w3.org/2000/svg">
<g clip-path="url(#clip0_54_1596)">
<path d="M0.5625 2.5C0.5625 1.25898 1.57148 0.25 2.8125 0.25H10.6875C11.9285 0.25 12.9375 1.25898 12.9375 2.5V16C12.9375 17.241 11.9285 18.25 10.6875 18.25H2.8125C1.57148 18.25 0.5625 17.241 0.5625 16V2.5ZM7.875 16C7.875 15.7016 7.75647 15.4155 7.5455 15.2045C7.33452 14.9935 7.04837 14.875 6.75 14.875C6.45163 14.875 6.16548 14.9935 5.9545 15.2045C5.74353 15.4155 5.625 15.7016 5.625 16C5.625 16.2984 5.74353 16.5845 5.9545 16.7955C6.16548 17.0065 6.45163 17.125 6.75 17.125C7.04837 17.125 7.33452 17.0065 7.5455 16.7955C7.75647 16.5845 7.875 16.2984 7.875 16ZM10.6875 2.5H2.8125V13.75H10.6875V2.5Z" fill="#ffffff"/>
</g>
<defs>
<clipPath id="clip0_54_1596">
<path d="M0 0.25H13.5V18.25H0V0.25Z" fill="white"/>
</clipPath>
</defs>
</svg>
