<svg width="16" height="19" viewBox="0 0 16 19" fill="none" xmlns="http://www.w3.org/2000/svg">
<g clip-path="url(#clip0_1_427)">
<g clip-path="url(#clip1_1_427)">
<path d="M8.04688 9.25C9.24035 9.25 10.3849 8.77589 11.2289 7.93198C12.0728 7.08807 12.5469 5.94347 12.5469 4.75C12.5469 3.55653 12.0728 2.41193 11.2289 1.56802C10.3849 0.724106 9.24035 0.25 8.04688 0.25C6.8534 0.25 5.70881 0.724106 4.86489 1.56802C4.02098 2.41193 3.54688 3.55653 3.54688 4.75C3.54688 5.94347 4.02098 7.08807 4.86489 7.93198C5.70881 8.77589 6.8534 9.25 8.04688 9.25ZM6.44023 10.9375C2.97734 10.9375 0.171875 13.743 0.171875 17.2059C0.171875 17.7824 0.639453 18.25 1.21602 18.25H14.8777C15.4543 18.25 15.9219 17.7824 15.9219 17.2059C15.9219 13.743 13.1164 10.9375 9.65352 10.9375H6.44023Z" fill="#93C5FD"/>
</g>
</g>
<defs>
<clipPath id="clip0_1_427">
<rect width="15.75" height="18" fill="white" transform="translate(0.171875 0.25)"/>
</clipPath>
<clipPath id="clip1_1_427">
<path d="M0.171875 0.25H15.9219V18.25H0.171875V0.25Z" fill="white"/>
</clipPath>
</defs>
</svg>
