<svg width="17" height="19" viewBox="0 0 17 19" fill="none" xmlns="http://www.w3.org/2000/svg">
<g clip-path="url(#clip0_1_540)">
<path d="M12.9086 1.81798C13.116 1.33634 12.9613 0.773841 12.5359 0.464466C12.1105 0.155091 11.5305 0.183216 11.1332 0.527747L2.1332 8.40275C1.78163 8.71212 1.65507 9.20783 1.8203 9.64376C1.98554 10.0797 2.40741 10.375 2.87499 10.375H6.79491L4.0914 16.682C3.88398 17.1637 4.03866 17.7262 4.46405 18.0356C4.88945 18.3449 5.46952 18.3168 5.86679 17.9723L14.8668 10.0973C15.2184 9.7879 15.3449 9.2922 15.1797 8.85626C15.0144 8.42033 14.5961 8.12853 14.125 8.12853H10.2051L12.9086 1.81798Z" fill="#1E3A8A"/>
</g>
<defs>
<clipPath id="clip0_1_540">
<path d="M0.625 0.25H16.375V18.25H0.625V0.25Z" fill="white"/>
</clipPath>
</defs>
</svg>
