<svg width="17" height="16" viewBox="0 0 17 16" fill="none" xmlns="http://www.w3.org/2000/svg">
<path d="M6.45312 2.15L7.54063 4H7.5H5.25C4.55937 4 4 3.44062 4 2.75C4 2.05938 4.55937 1.5 5.25 1.5H5.31875C5.78437 1.5 6.21875 1.74688 6.45312 2.15ZM2.5 2.75C2.5 3.2 2.60938 3.625 2.8 4H1.5C0.946875 4 0.5 4.44688 0.5 5V7C0.5 7.55312 0.946875 8 1.5 8H15.5C16.0531 8 16.5 7.55312 16.5 7V5C16.5 4.44688 16.0531 4 15.5 4H14.2C14.3906 3.625 14.5 3.2 14.5 2.75C14.5 1.23125 13.2688 0 11.75 0H11.6812C10.6844 0 9.75938 0.528125 9.25313 1.3875L8.5 2.67188L7.74687 1.39062C7.24062 0.528125 6.31562 0 5.31875 0H5.25C3.73125 0 2.5 1.23125 2.5 2.75ZM13 2.75C13 3.44062 12.4406 4 11.75 4H9.5H9.45938L10.5469 2.15C10.7844 1.74688 11.2156 1.5 11.6812 1.5H11.75C12.4406 1.5 13 2.05938 13 2.75ZM1.5 9V14.5C1.5 15.3281 2.17188 16 3 16H7.5V9H1.5ZM9.5 16H14C14.8281 16 15.5 15.3281 15.5 14.5V9H9.5V16Z" fill="#E5C158"/>
</svg>
