<svg width="19" height="19" viewBox="0 0 19 19" fill="none" xmlns="http://www.w3.org/2000/svg">
<g clip-path="url(#clip0_54_1602)">
<g clip-path="url(#clip1_54_1602)">
<path d="M17.5426 0.446887C17.8977 0.692981 18.084 1.11837 18.0172 1.54376L15.7672 16.1688C15.7145 16.5098 15.507 16.8086 15.2047 16.9774C14.9023 17.1461 14.5402 17.1672 14.2203 17.0336L10.0156 15.2863L7.60742 17.8914C7.29453 18.2324 6.80234 18.3449 6.36992 18.1762C5.9375 18.0074 5.65625 17.5891 5.65625 17.125V14.1859C5.65625 14.0453 5.70898 13.9117 5.80391 13.8098L11.6961 7.3797C11.9 7.15822 11.893 6.8172 11.682 6.60626C11.4711 6.39533 11.1301 6.38126 10.9086 6.58165L3.75781 12.9344L0.653516 11.3805C0.280859 11.1942 0.0417968 10.8215 0.03125 10.4067C0.0207031 9.99181 0.238672 9.60509 0.597266 9.39767L16.3473 0.397669C16.7234 0.183215 17.1875 0.204309 17.5426 0.446887Z" fill="white"/>
</g>
</g>
<defs>
<clipPath id="clip0_54_1602">
<rect width="18" height="18" fill="white" transform="translate(0.03125 0.25)"/>
</clipPath>
<clipPath id="clip1_54_1602">
<path d="M0.03125 0.25H18.0312V18.25H0.03125V0.25Z" fill="white"/>
</clipPath>
</defs>
</svg>
