<svg width="17" height="16" viewBox="0 0 17 16" fill="none" xmlns="http://www.w3.org/2000/svg">
<g clip-path="url(#clip0_54_1760)">
<path d="M9.79688 1.0875C9.4375 1.24688 9.20312 1.60625 9.20312 2V4H5.70312C2.66563 4 0.203125 6.4625 0.203125 9.5C0.203125 13.0406 2.75 14.6219 3.33437 14.9406C3.4125 14.9844 3.5 15 3.5875 15C3.92813 15 4.20312 14.7219 4.20312 14.3844C4.20312 14.15 4.06875 13.9344 3.89687 13.775C3.60312 13.4969 3.20312 12.95 3.20312 12C3.20312 10.3438 4.54688 9 6.20312 9H9.20312V11C9.20312 11.3938 9.43437 11.7531 9.79688 11.9125C10.1594 12.0719 10.5781 12.0063 10.8719 11.7438L15.8719 7.24375C16.0813 7.05313 16.2031 6.78438 16.2031 6.5C16.2031 6.21563 16.0844 5.94688 15.8719 5.75625L10.8719 1.25625C10.5781 0.990629 10.1562 0.925004 9.79688 1.0875Z" fill="#1E3A8A"/>
</g>
<defs>
<clipPath id="clip0_54_1760">
<path d="M0.203125 0H16.2031V16H0.203125V0Z" fill="white"/>
</clipPath>
</defs>
</svg>
