<svg width="22" height="19" viewBox="0 0 22 19" fill="none" xmlns="http://www.w3.org/2000/svg">
<g clip-path="url(#clip0_1_417)">
<g clip-path="url(#clip1_1_417)">
<path d="M15.0312 0.25H7.15625C6.22461 0.25 5.46523 1.01641 5.50039 1.94453C5.50742 2.13086 5.51445 2.31719 5.525 2.5H1.8125C1.34492 2.5 0.96875 2.87617 0.96875 3.34375C0.96875 6.59922 2.14648 8.86328 3.72852 10.3996C5.28594 11.9148 7.18438 12.6777 8.58359 13.0645C9.40625 13.293 9.96875 13.9785 9.96875 14.6676C9.96875 15.4023 9.37109 16 8.63633 16H7.71875C7.09648 16 6.59375 16.5027 6.59375 17.125C6.59375 17.7473 7.09648 18.25 7.71875 18.25H14.4688C15.091 18.25 15.5938 17.7473 15.5938 17.125C15.5938 16.5027 15.091 16 14.4688 16H13.5512C12.8164 16 12.2188 15.4023 12.2188 14.6676C12.2188 13.9785 12.7777 13.2895 13.6039 13.0645C15.0066 12.6777 16.9051 11.9148 18.4625 10.3996C20.041 8.86328 21.2188 6.59922 21.2188 3.34375C21.2188 2.87617 20.8426 2.5 20.375 2.5H16.6625C16.673 2.31719 16.6801 2.13437 16.6871 1.94453C16.7223 1.01641 15.9629 0.25 15.0312 0.25ZM2.68789 4.1875H5.65508C5.975 7.35508 6.68164 9.47148 7.47969 10.8883C6.6043 10.5016 5.69375 9.95664 4.90625 9.19023C3.78125 8.09688 2.86719 6.51836 2.69141 4.1875H2.68789ZM17.2848 9.19023C16.4973 9.95664 15.5867 10.5016 14.7113 10.8883C15.5094 9.47148 16.216 7.35508 16.5359 4.1875H19.5031C19.3238 6.51836 18.4098 8.09688 17.2883 9.19023H17.2848Z" fill="#93C5FD"/>
</g>
</g>
<defs>
<clipPath id="clip0_1_417">
<rect width="20.25" height="18" fill="white" transform="translate(0.96875 0.25)"/>
</clipPath>
<clipPath id="clip1_1_417">
<path d="M0.96875 0.25H21.2188V18.25H0.96875V0.25Z" fill="white"/>
</clipPath>
</defs>
</svg>
