<svg width="19" height="19" viewBox="0 0 19 19" fill="none" xmlns="http://www.w3.org/2000/svg">
<g clip-path="url(#clip0_1_422)">
<g clip-path="url(#clip1_1_422)">
<path d="M2.85938 1.375C1.61836 1.375 0.609375 2.38398 0.609375 3.625V14.875C0.609375 16.116 1.61836 17.125 2.85938 17.125H16.3594C17.6004 17.125 18.6094 16.116 18.6094 14.875V7C18.6094 5.75898 17.6004 4.75 16.3594 4.75H3.42188C3.1125 4.75 2.85938 4.49688 2.85938 4.1875C2.85938 3.87812 3.1125 3.625 3.42188 3.625H16.3594C16.9816 3.625 17.4844 3.12227 17.4844 2.5C17.4844 1.87773 16.9816 1.375 16.3594 1.375H2.85938ZM15.2344 9.8125C15.5327 9.8125 15.8189 9.93103 16.0299 10.142C16.2408 10.353 16.3594 10.6391 16.3594 10.9375C16.3594 11.2359 16.2408 11.522 16.0299 11.733C15.8189 11.944 15.5327 12.0625 15.2344 12.0625C14.936 12.0625 14.6499 11.944 14.4389 11.733C14.2279 11.522 14.1094 11.2359 14.1094 10.9375C14.1094 10.6391 14.2279 10.353 14.4389 10.142C14.6499 9.93103 14.936 9.8125 15.2344 9.8125Z" fill="#93C5FD"/>
</g>
</g>
<defs>
<clipPath id="clip0_1_422">
<rect width="18" height="18" fill="white" transform="translate(0.609375 0.25)"/>
</clipPath>
<clipPath id="clip1_1_422">
<path d="M0.609375 0.25H18.6094V18.25H0.609375V0.25Z" fill="white"/>
</clipPath>
</defs>
</svg>
