<svg width="17" height="16" viewBox="0 0 17 16" fill="none" xmlns="http://www.w3.org/2000/svg">
<g clip-path="url(#clip0_74_2145)">
<path d="M15.9094 8.70625C16.3 8.31563 16.3 7.68125 15.9094 7.29063L11.9094 3.29063C11.5188 2.9 10.8844 2.9 10.4937 3.29063C10.1031 3.68125 10.1031 4.31563 10.4937 4.70625L12.7875 7H6.20312C5.65 7 5.20312 7.44688 5.20312 8C5.20312 8.55312 5.65 9 6.20312 9H12.7875L10.4937 11.2937C10.1031 11.6844 10.1031 12.3188 10.4937 12.7094C10.8844 13.1 11.5188 13.1 11.9094 12.7094L15.9094 8.70938V8.70625ZM5.20312 3C5.75625 3 6.20312 2.55313 6.20312 2C6.20312 1.44687 5.75625 1 5.20312 1H3.20312C1.54688 1 0.203125 2.34375 0.203125 4V12C0.203125 13.6562 1.54688 15 3.20312 15H5.20312C5.75625 15 6.20312 14.5531 6.20312 14C6.20312 13.4469 5.75625 13 5.20312 13H3.20312C2.65 13 2.20312 12.5531 2.20312 12V4C2.20312 3.44688 2.65 3 3.20312 3H5.20312Z" fill="#E5C158"/>
</g>
<defs>
<clipPath id="clip0_74_2145">
<path d="M0.203125 0H16.2031V16H0.203125V0Z" fill="white"/>
</clipPath>
</defs>
</svg>
